<svg version="1.1" id="Layer_1" xmlns="http://www.w3.org/2000/svg" xmlns:xlink="http://www.w3.org/1999/xlink" x="0px" y="0px"
	 width="100%" viewBox="0 0 624 624" enable-background="new 0 0 624 624" xml:space="preserve">
<path fill="#FFFFFF" opacity="1.000000" stroke="none" 
	d="
M403.000000,625.000000 
	C268.666718,625.000000 134.833450,625.000000 1.000084,625.000000 
	C1.000000,521.000122 1.000000,417.000214 1.000000,313.000305 
	C1.000000,209.000351 1.000000,105.000389 1.000000,1.000321 
	C208.999771,1.000214 416.999542,1.000214 624.999512,1.000107 
	C624.999634,208.999680 624.999634,416.999359 624.999817,624.999512 
	C551.166687,625.000000 477.333344,625.000000 403.000000,625.000000 
M437.089722,278.081451 
	C437.089722,278.081451 437.137787,278.187836 437.723755,277.911102 
	C438.210571,276.980438 438.697388,276.049774 439.082520,275.073761 
	C439.082520,275.073761 439.126251,275.176117 439.761658,274.845428 
	C443.523163,267.849091 445.087097,260.380493 445.066895,252.441467 
	C444.988342,221.610947 445.040314,190.780090 445.043671,159.949356 
	C445.043854,158.163620 445.043701,156.377884 445.043701,154.424210 
	C443.962006,154.296112 443.332520,154.157364 442.702850,154.156357 
	C426.204285,154.130112 409.705658,154.104904 393.207184,154.133423 
	C392.104370,154.135330 391.002258,154.563095 389.370941,154.773788 
	C389.239594,154.891586 389.108276,155.009384 388.210083,155.065735 
	C384.792389,156.679535 381.374695,158.293350 377.348816,159.966263 
	C376.910339,160.352325 376.471863,160.738388 375.453491,161.310120 
	C374.666229,162.219116 373.878967,163.128128 373.017944,164.020035 
	C373.017944,164.020035 373.037628,164.093185 372.451385,164.337585 
	C371.663849,165.566513 370.876312,166.795441 369.520386,168.263107 
	C369.345673,168.841568 369.170959,169.420029 368.384460,170.383148 
	C367.704620,173.249435 367.024750,176.115738 366.068726,179.639359 
	C366.095123,180.106918 366.121490,180.574493 365.756958,181.730804 
	C365.578766,196.693512 364.901428,211.675995 365.492706,226.608246 
	C365.699982,231.843033 369.025024,236.954346 370.963409,242.036957 
	C370.963409,242.036957 370.876221,242.068695 371.002289,242.696030 
	C371.663269,243.479675 372.324219,244.263336 373.188202,245.630829 
	C374.113403,246.424332 375.038605,247.217834 376.245026,248.637909 
	C379.512329,250.447861 382.598083,253.216492 386.083191,253.876587 
	C394.414459,255.454529 402.913818,256.410126 411.385803,256.867828 
	C415.596619,257.095276 416.633698,258.655609 416.053040,262.252136 
	C415.847656,263.524170 415.348450,264.748718 414.493988,266.165344 
	C414.334259,266.460602 414.174561,266.755829 413.431763,267.303131 
	C412.287018,268.535187 411.142242,269.767242 409.290588,271.141632 
	C407.051331,272.154419 404.714325,273.002441 402.613647,274.248779 
	C401.545258,274.882629 400.231628,276.201050 400.180420,277.265442 
	C399.929871,282.475677 400.066864,287.704529 400.066864,292.796539 
	C408.589569,294.622528 417.850616,292.919312 426.589752,288.018921 
	C427.444855,287.381012 428.299957,286.743103 429.055725,286.058075 
	C429.055725,286.058075 429.102936,286.157318 429.716827,285.937866 
	C430.859619,284.974915 432.002411,284.011963 433.686951,282.879974 
	C434.139404,282.297424 434.591827,281.714874 435.614014,280.852417 
	C436.141144,279.945251 436.668274,279.038116 437.089722,278.081451 
M200.385956,287.375885 
	C200.385956,287.375885 200.239853,287.531677 199.774887,287.857544 
	C199.154922,288.555450 198.534958,289.253357 197.988846,289.989075 
	C197.988846,289.989075 197.951035,289.915222 197.367920,290.154327 
	C196.569824,291.103699 195.771729,292.053070 194.362732,293.330994 
	C192.249878,298.890533 190.137024,304.450073 187.590103,310.717712 
	C187.405807,312.524170 187.063477,314.330353 187.060654,316.137085 
	C187.008667,349.375854 186.993652,382.614685 186.991379,415.853485 
	C186.991287,417.112152 187.197769,418.370850 187.313110,419.688049 
	C199.766266,419.688049 211.872391,419.688049 224.771210,419.891571 
	C225.854034,419.826111 226.936859,419.760651 228.930420,419.861084 
	C232.945953,419.791504 236.961487,419.721924 241.722076,419.723755 
	C242.668015,419.456177 243.611786,419.180634 244.560226,418.922272 
	C256.340668,415.712524 265.107941,406.549683 265.833038,395.791382 
	C266.343201,388.222015 265.958008,380.592285 266.188690,372.214508 
	C266.121735,364.811462 266.054779,357.408417 266.174500,349.183105 
	C266.070740,347.785919 265.966980,346.388763 265.990906,344.205109 
	C264.687988,340.726013 263.385040,337.246887 262.068695,333.199768 
	C261.761261,332.783142 261.453827,332.366516 260.968964,331.331421 
	C260.329163,330.505524 259.689362,329.679626 258.860718,328.256287 
	C257.642548,327.146576 256.424408,326.036835 254.980545,324.400116 
	C254.265823,323.783997 253.551086,323.167908 252.658432,322.289032 
	C252.658432,322.289032 252.366379,322.164948 251.805267,321.848114 
	C247.984116,320.190796 244.277008,317.559021 240.316162,317.095520 
	C233.718491,316.323486 226.951157,316.770233 220.269516,317.047424 
	C217.083450,317.179596 215.575882,316.285645 216.081329,312.377747 
	C216.113007,311.941162 216.144684,311.504547 216.707413,310.646912 
	C217.867462,308.452087 219.027512,306.257263 220.777939,303.910248 
	C221.521133,303.240906 222.264328,302.571594 223.718430,301.719421 
	C225.401855,300.920349 227.085297,300.121277 228.886810,299.266113 
	C228.886810,297.848267 228.886810,296.427795 229.048721,294.159576 
	C229.028000,292.437988 229.007278,290.716431 229.187210,288.243439 
	C229.187210,285.359161 229.187210,282.474884 229.187210,279.233276 
	C226.509232,279.528534 224.258728,279.776672 221.337265,279.889587 
	C220.889206,279.961823 220.441132,280.034058 219.164795,279.974548 
	C213.308304,280.806580 207.432968,281.586578 202.923660,285.931671 
	C202.923660,285.931671 202.897308,285.833160 202.340912,285.936676 
	C201.746307,286.373810 201.151703,286.810944 200.385956,287.375885 
M404.821075,477.148285 
	C405.174011,477.453278 405.526917,477.758270 405.893646,478.806610 
	C405.966431,479.543152 406.039246,480.279663 405.988892,481.944305 
	C406.028351,493.624298 406.067841,505.304321 405.927551,517.734863 
	C403.852020,519.560974 401.776489,521.387085 399.197632,523.656006 
	C407.031403,523.656006 413.873352,523.656006 420.715332,523.656006 
	C420.832825,523.237549 420.950348,522.819153 421.067841,522.400696 
	C419.977295,521.950867 418.691498,521.729309 417.839569,521.000549 
	C416.369171,519.742798 414.155884,518.249451 414.035065,516.714783 
	C413.583618,510.979553 413.854553,505.187469 413.854553,499.392029 
	C422.799225,499.392029 431.190399,499.392029 439.742798,499.392029 
	C439.742798,503.188446 439.983643,506.686218 439.675842,510.135071 
	C439.360504,513.668945 438.508087,517.154907 437.036346,520.820679 
	C435.642029,521.346558 434.247681,521.872437 432.853363,522.398376 
	C433.020660,522.774536 433.187988,523.150696 433.355286,523.526855 
	C440.136902,523.526855 446.918518,523.526855 453.700134,523.526855 
	C453.776184,523.044617 453.852203,522.562378 453.928253,522.080139 
	C452.288177,521.712830 450.648071,521.345520 448.611237,520.276001 
	C448.077148,517.916626 447.127686,515.565247 447.082489,513.196533 
	C446.908813,504.082855 446.980774,494.963379 447.050873,485.846741 
	C447.086273,481.243774 445.574310,475.722931 454.118561,475.534973 
	C452.558228,474.137360 452.047302,473.279144 451.519806,473.268860 
	C445.887360,473.158600 440.251251,473.135132 434.619507,473.250793 
	C434.111694,473.261230 433.627228,474.407898 433.062988,475.582550 
	C433.369629,475.698364 433.676239,475.814148 434.665436,476.099701 
	C436.118683,476.734497 437.571960,477.369324 438.973755,478.621368 
	C439.218628,479.136444 439.463501,479.651550 439.712067,481.080139 
	C439.712067,485.701721 439.712067,490.323303 439.712067,495.140991 
	C431.005341,495.140991 422.633545,495.140991 413.623230,495.140991 
	C413.932404,488.195862 414.226868,481.580933 414.522858,474.932098 
	C417.347076,475.268890 419.050110,475.471954 421.057770,475.711365 
	C419.341064,472.888184 416.125427,472.524017 404.248138,473.255463 
	C403.515625,473.311737 402.783142,473.368011 401.348450,473.179016 
	C400.906891,473.874451 400.465332,474.569885 400.023773,475.265350 
	C400.688171,475.470581 401.352570,475.675781 402.564667,476.028320 
	C403.100616,476.201752 403.636566,476.375183 404.344635,476.669250 
	C404.344635,476.669250 404.523529,476.779541 404.821075,477.148285 
M476.850098,524.374268 
	C477.570374,524.216675 478.290680,524.059021 479.726410,523.955261 
	C481.399536,522.922852 483.123596,521.963135 484.730682,520.836548 
	C486.184998,519.817017 487.511627,518.615356 488.800690,518.278809 
	C488.893799,519.857727 488.986877,521.436707 488.994171,523.540222 
	C489.696411,523.753845 490.398621,523.967407 491.823792,524.370178 
	C492.553528,524.225342 493.283264,524.080505 494.859467,524.039001 
	C496.317474,523.916138 497.775482,523.793274 499.233490,523.670410 
	C499.229492,523.263000 499.225525,522.855591 499.221527,522.448181 
	C498.206360,522.267334 497.191162,522.086426 495.788147,521.144409 
	C495.423492,518.589050 494.786469,516.038208 494.744507,513.477539 
	C494.609528,505.246063 494.694214,497.010925 494.694214,488.406860 
	C492.012054,488.801788 490.093781,489.084259 487.394775,489.215118 
	C485.246002,489.767853 482.122131,487.850769 480.247009,492.163788 
	C486.906677,490.888336 487.323395,494.297119 487.078491,498.632355 
	C486.846741,502.735931 487.066742,506.865051 486.877869,511.587433 
	C486.835266,512.012024 486.792694,512.436584 486.210754,513.173767 
	C486.159637,513.782104 486.108490,514.390381 485.618896,515.549316 
	C482.967926,520.303528 478.636871,520.670288 473.586060,519.370239 
	C472.576752,516.375977 470.883972,513.423950 470.695862,510.378906 
	C470.261871,503.353851 470.558136,496.283661 470.558136,488.979553 
	C467.476990,489.132416 465.342712,489.238312 462.439209,489.177917 
	C460.876709,489.177917 459.314209,489.177917 457.751740,489.177917 
	C457.615173,489.623169 457.478607,490.068420 457.342010,490.513672 
	C459.199432,491.432678 461.056854,492.351654 462.873871,493.663086 
	C462.873871,493.663086 463.065063,494.008118 462.961548,494.939148 
	C462.970123,500.041138 462.626556,505.176819 463.109985,510.233429 
	C463.437164,513.655762 464.927704,516.966919 465.938568,520.980469 
	C467.298920,521.925110 468.659302,522.869751 470.696198,524.034668 
	C472.504974,524.104614 474.313751,524.174561 476.850098,524.374268 
M365.221436,502.611267 
	C365.221436,502.611267 365.399353,502.730774 366.294983,503.020996 
	C368.454834,502.280548 370.614655,501.540131 373.464447,500.438538 
	C373.506409,499.662537 373.548401,498.886566 373.793671,497.523895 
	C372.811218,495.838989 372.104767,493.891815 370.797211,492.515839 
	C365.875366,487.336578 359.769775,487.062317 353.376221,488.984833 
	C346.674042,491.000153 342.819519,495.777069 342.019226,502.548004 
	C341.142029,509.969574 341.658600,517.174011 349.648560,521.351990 
	C349.648560,521.351990 349.738068,521.494019 350.022736,522.141174 
	C358.882141,526.658569 367.332214,525.078491 372.509338,517.196960 
	C371.073242,517.070557 369.692902,517.298523 368.653717,518.018738 
	C362.573822,522.232483 357.920349,521.986084 353.268677,517.045044 
	C348.665863,512.155945 348.268646,506.168762 352.291809,501.205963 
	C352.291809,501.205963 352.474823,501.054871 351.971069,501.991913 
	C356.370392,502.210480 360.769745,502.429047 365.221436,502.611267 
M528.455322,488.317291 
	C523.618958,487.901733 519.066711,488.343475 515.093140,492.805969 
	C514.646851,492.207611 514.200500,491.609253 514.037537,490.227264 
	C514.069641,484.822021 514.170959,479.415588 514.080139,474.012421 
	C514.060059,472.815155 513.361267,471.629333 512.208313,470.305054 
	C508.623383,471.277985 505.038452,472.250916 501.453552,473.223877 
	C501.479584,473.753754 501.505585,474.283661 501.531616,474.813538 
	C506.442596,474.620941 507.052155,477.444092 507.016815,481.244904 
	C506.884796,495.433868 506.964050,509.624817 506.964050,524.536743 
	C508.403809,523.719299 509.176025,523.280823 510.560547,522.629150 
	C511.060272,521.476135 511.560028,520.323181 512.780334,519.096436 
	C521.280884,527.848083 530.985779,525.912048 536.903809,519.400940 
	C544.206665,511.366150 545.421021,501.409027 537.096619,493.053253 
	C537.096619,493.053253 536.705261,492.866730 536.319092,492.238770 
	C535.287598,491.611328 534.256104,490.983917 532.798523,489.872803 
	C531.567627,489.503387 530.336792,489.133972 528.455322,488.317291 
M274.946564,515.699768 
	C274.610046,517.068665 274.273499,518.437622 273.247009,520.163635 
	C271.776184,520.907288 270.305389,521.650940 268.834595,522.394592 
	C269.011078,522.853638 269.187531,523.312622 269.364014,523.771606 
	C273.235474,523.771606 277.106903,523.771606 281.802094,523.959595 
	C283.419006,523.959595 285.035889,523.959595 286.652802,523.959595 
	C286.821106,523.544189 286.989441,523.128845 287.157776,522.713440 
	C286.347595,522.120911 285.424011,521.633667 284.753174,520.911682 
	C283.683685,519.760620 282.022217,518.499207 281.943909,517.203857 
	C281.633423,512.067627 281.610382,506.885864 281.928772,501.748718 
	C282.178925,497.712006 284.333954,494.603119 288.218506,492.981262 
	C291.943970,491.425812 295.315796,491.753784 298.048706,495.572021 
	C298.344269,495.786743 298.639801,496.001465 298.933868,496.638855 
	C298.933868,496.638855 299.133514,497.011383 299.058075,497.645935 
	C299.363922,498.434326 299.669769,499.222748 299.858429,500.840332 
	C299.941406,502.230042 300.024353,503.619751 299.974274,505.855927 
	C300.192047,507.837860 300.409851,509.819763 300.592377,512.336609 
	C300.044647,514.847839 299.496918,517.359131 298.324310,520.269470 
	C297.038239,520.988037 295.752167,521.706543 294.466064,522.425049 
	C295.127777,522.943115 295.778717,523.893555 296.452911,523.910278 
	C301.526550,524.036621 306.604797,523.979187 311.681580,523.979187 
	C311.812683,523.368469 311.943787,522.757812 312.074890,522.147095 
	C310.778015,521.738647 309.481110,521.330261 307.685333,520.219788 
	C307.503906,513.166931 307.322479,506.114105 307.677826,498.636047 
	C308.266357,497.670563 308.717102,496.578278 309.468109,495.762329 
	C312.221313,492.770935 315.485260,491.269714 319.659271,492.483276 
	C324.092072,493.772064 324.589905,497.580383 324.860596,501.125458 
	C325.225861,505.908447 324.891693,510.741150 324.980682,515.550293 
	C325.035461,518.511719 324.524170,520.798828 320.901703,521.067322 
	C320.290375,521.112610 319.755524,522.189697 319.185303,522.790039 
	C319.946716,523.200500 320.701111,523.950378 321.470703,523.966431 
	C326.572906,524.072632 331.678375,524.021362 338.125610,524.021362 
	C335.400085,520.478394 329.995331,519.898499 331.829010,514.124756 
	C331.469391,508.107758 331.109772,502.090790 330.805389,495.358063 
	C329.354492,490.384583 325.752625,488.298615 320.858124,487.988586 
	C314.555817,487.589355 309.666382,490.128662 305.329987,494.928436 
	C302.052521,486.043427 292.748016,485.523468 281.011444,493.706726 
	C280.906921,491.830780 280.808807,490.069611 280.680115,487.760284 
	C277.913727,488.943909 275.463745,489.992096 272.174652,490.994415 
	C271.349884,491.231812 270.525146,491.469208 269.700378,491.706635 
	C269.766663,492.076508 269.832916,492.446411 269.899200,492.816315 
	C270.935608,492.816315 271.972015,492.816315 273.700195,493.238647 
	C274.110657,494.927032 274.791473,496.601685 274.878265,498.306549 
	C275.093170,502.530396 275.036499,506.768066 274.946320,511.748047 
	C275.004181,512.502930 275.062042,513.257874 274.998779,514.500061 
	C275.039276,514.662537 275.079803,514.824951 274.946564,515.699768 
M220.059357,492.575836 
	C221.725845,491.875916 223.392319,491.175995 225.058807,490.476074 
	C224.922134,490.068268 224.785477,489.660461 224.648804,489.252655 
	C219.137238,489.252655 213.625687,489.252655 208.114120,489.252655 
	C207.926437,489.670410 207.738754,490.088196 207.551071,490.505951 
	C208.981888,491.296600 210.412704,492.087250 211.969193,492.947357 
	C211.598877,493.589691 211.207932,494.267822 210.212372,495.172668 
	C208.752548,496.891235 207.292709,498.609802 205.085983,500.287903 
	C203.546707,501.454987 202.007431,502.622070 199.951248,503.104370 
	C199.754242,502.897034 199.557251,502.689697 199.115967,501.656647 
	C199.030624,492.107574 198.945267,482.558502 199.142166,472.289734 
	C198.994522,471.577942 198.846863,470.866119 198.699219,470.154327 
	C197.729691,470.734192 196.760162,471.314056 195.031967,471.927490 
	C194.024994,472.006409 193.018005,472.085327 191.295303,471.937653 
	C189.958939,472.697876 188.622559,473.458069 186.594788,474.611572 
	C188.695740,474.860413 189.817291,474.993225 191.419601,475.821075 
	C191.698715,489.691223 192.058289,503.561066 192.111618,517.432068 
	C192.116135,518.602600 190.110703,519.824280 188.959061,520.939514 
	C188.276749,521.600281 187.437485,522.098999 185.671646,523.412109 
	C193.356384,523.412109 199.489182,523.412109 205.621994,523.412109 
	C205.829773,523.052979 206.037537,522.693848 206.245316,522.334717 
	C203.721634,520.444153 198.797562,520.972473 199.127396,516.186096 
	C199.360352,512.805664 197.274506,508.681427 202.934265,507.111938 
	C206.411133,511.272888 209.981049,515.545227 213.369644,519.600464 
	C212.333221,520.957520 211.666992,521.829834 211.000748,522.702148 
	C211.939987,523.095520 212.871078,523.804260 213.819839,523.828796 
	C218.410751,523.947510 223.006409,523.882263 228.392883,523.882263 
	C223.967957,519.796265 220.223694,516.338867 216.285416,512.257019 
	C215.520996,511.511597 214.756577,510.766205 213.728577,509.403046 
	C211.781067,506.927643 209.833557,504.452240 208.525955,501.732483 
	C212.105118,498.743164 215.684280,495.753815 220.059357,492.575836 
M153.070953,498.499878 
	C156.195145,499.640015 158.034668,498.605042 158.969177,495.373871 
	C159.357391,494.031555 160.450485,492.893097 162.045578,491.376404 
	C164.276108,491.521179 166.506638,491.665924 168.888733,492.212616 
	C169.215820,492.467834 169.542892,492.723022 169.988983,493.783142 
	C172.112732,499.895081 171.575897,500.395630 165.825775,503.090607 
	C161.067245,505.320801 156.513046,508.162170 152.299057,511.309479 
	C149.987991,513.035583 148.652451,515.967773 151.018570,519.694763 
	C153.158951,523.927612 156.729218,524.640991 161.689255,523.818970 
	C162.936859,523.231140 164.294373,522.800598 165.408798,522.022156 
	C167.608932,520.485291 169.674438,518.755615 171.839752,517.747620 
	C171.901993,518.166382 171.964249,518.585144 171.922150,519.789978 
	C173.350677,521.224854 174.714981,523.753113 176.222580,523.841675 
	C178.562912,523.979126 181.000839,522.455017 183.342087,521.654175 
	C180.872055,520.426025 179.437653,519.712769 178.073013,518.063110 
	C178.011047,511.451904 178.277664,504.812836 177.720154,498.243683 
	C177.506836,495.730194 175.409058,493.376648 173.826370,490.275482 
	C167.583923,486.416565 161.254150,487.385651 155.069885,490.241394 
	C151.734634,491.781525 150.894608,494.548676 153.070953,498.499878 
M244.906418,491.064362 
	C246.920013,491.425995 248.933609,491.787628 251.156540,492.865906 
	C254.472595,500.272766 254.198975,500.547516 247.131500,503.666901 
	C242.834885,505.563293 238.413574,507.694611 234.944824,510.741150 
	C233.078522,512.380310 232.067123,516.360718 232.536148,518.946167 
	C233.127777,522.207520 236.048737,524.456604 240.351425,524.206177 
	C240.893768,524.104980 241.436111,524.003723 242.736771,523.984680 
	C246.176590,522.103638 249.616409,520.222595 252.921967,518.414978 
	C253.277634,519.133972 254.173447,520.944763 255.411819,523.323608 
	C257.278717,523.484009 259.145599,523.644409 261.744537,523.924377 
	C263.232147,523.115234 264.719757,522.306091 266.207367,521.496948 
	C266.243195,520.921021 266.279022,520.345093 266.314850,519.769165 
	C261.879517,521.392822 259.710114,520.160095 259.808716,515.978271 
	C259.831848,514.997253 259.682678,514.012207 259.828064,512.234009 
	C259.755096,511.145691 259.682098,510.057404 259.788269,508.134155 
	C259.731750,506.432129 259.675201,504.730103 259.830017,502.352539 
	C259.758240,501.891724 259.686432,501.430878 259.791595,500.192230 
	C259.715668,499.139008 259.639709,498.085785 259.687073,496.398071 
	C259.338348,495.609375 258.989655,494.820679 258.642303,493.366760 
	C256.430206,491.904999 254.218155,490.443207 251.340225,488.494598 
	C246.048645,487.546082 240.874847,487.371582 235.596237,490.896454 
	C235.045685,493.055725 234.333252,495.196594 234.083374,497.390137 
	C234.034363,497.820404 236.297867,499.121674 236.602402,498.882935 
	C238.199600,497.630646 239.514389,496.016632 240.918259,494.519806 
	C241.993011,493.373932 243.054276,492.215393 244.906418,491.064362 
M137.748825,522.017822 
	C137.699539,508.351624 137.650253,494.685455 137.824295,480.259094 
	C139.849060,478.048004 141.873810,475.836914 143.946152,473.573853 
	C138.104645,473.573853 132.650711,473.573853 127.196777,473.573853 
	C127.134583,474.039276 127.072380,474.504669 127.010185,474.970093 
	C128.027832,475.232178 129.045471,475.494232 130.470093,476.133575 
	C130.995300,476.276031 131.520508,476.418457 132.660492,477.228180 
	C133.039886,488.127472 133.419281,499.026764 133.151627,509.773315 
	C124.764595,499.294769 116.321404,488.860474 108.013588,478.319519 
	C103.684013,472.826172 97.152954,471.176941 90.058846,474.114014 
	C90.084061,474.439972 90.026459,474.805511 90.157974,475.080688 
	C90.287445,475.351562 90.595947,475.706238 90.847542,475.724426 
	C95.866508,476.086975 96.354019,479.507050 96.323372,483.498413 
	C96.249168,493.161926 96.329895,502.826538 96.297218,512.490479 
	C96.282059,516.973450 97.119942,522.120911 89.289673,522.074707 
	C95.072098,524.365234 100.548668,523.719360 106.489723,523.725220 
	C106.322586,522.864014 106.155457,522.002808 105.269501,520.950989 
	C103.712120,519.959900 102.154739,518.968750 100.759972,517.087341 
	C100.701462,514.369141 100.642952,511.650909 100.810234,508.029297 
	C100.746536,501.012848 100.682838,493.996429 100.808945,486.197479 
	C100.841026,485.123260 100.873108,484.049011 101.635963,483.077942 
	C102.753304,484.379059 103.870644,485.680206 105.024910,486.936646 
	C105.024910,486.936646 105.008606,486.981659 105.260307,487.701050 
	C114.456284,499.488770 123.652260,511.276520 133.063339,523.648682 
	C134.554794,523.406799 136.046234,523.164917 137.748825,522.017822 
M278.895477,172.411179 
	C277.995850,171.584564 277.096222,170.757935 275.959167,169.333313 
	C275.000702,168.209320 274.042206,167.085327 272.880829,165.314072 
	C270.126129,162.167252 267.371399,159.020432 264.195068,155.099319 
	C262.673859,154.731689 261.155853,154.061981 259.630890,154.045715 
	C250.134018,153.944458 240.635590,153.987671 231.137680,153.986572 
	C216.669220,153.984879 202.200775,153.986115 187.894791,153.986115 
	C187.582687,154.603683 187.305832,154.896057 187.305206,155.189011 
	C187.235489,188.014633 187.175659,220.840302 187.212708,253.665863 
	C187.213440,254.323502 188.359131,254.979828 189.873169,255.860672 
	C202.851334,256.214508 215.831985,256.504303 228.804535,257.003967 
	C230.411011,257.065857 232.487885,257.806976 233.479996,258.971710 
	C245.968079,273.632416 258.310699,288.417236 270.662811,303.193542 
	C291.004700,327.527649 311.289520,351.909607 331.681213,376.201843 
	C337.074860,382.627197 342.949005,388.652100 348.279144,395.127045 
	C353.618256,401.612946 358.553192,408.431580 363.903809,415.712250 
	C364.585968,416.527374 365.268158,417.342468 366.021729,418.614716 
	C366.163849,418.938995 366.411743,419.092712 367.105255,419.847656 
	C367.795441,420.231598 368.484741,420.949432 369.175934,420.951233 
	C393.432220,421.014465 417.688721,421.024689 441.944794,420.932434 
	C442.546814,420.930145 443.144135,419.687836 443.955444,418.104919 
	C443.936157,384.732849 443.916870,351.360748 443.950836,317.098083 
	C443.617249,316.805115 443.281799,316.254028 442.950317,316.256439 
	C430.647614,316.345337 418.345337,316.485413 405.274384,316.372528 
	C399.143585,318.173157 394.844086,315.964844 391.637634,310.584595 
	C390.124115,308.045074 387.911835,305.923431 386.027039,303.603607 
	C366.441223,279.497314 346.892639,255.360611 327.257050,231.294876 
	C318.665192,220.764526 309.896667,210.378296 300.958893,199.320541 
	C299.989227,198.164200 299.019592,197.007858 297.916046,195.308609 
	C297.354401,194.845230 296.792755,194.381836 295.993683,193.302628 
	C295.016266,192.142197 294.038849,190.981766 292.908264,189.286194 
	C292.342651,188.832764 291.777008,188.379333 290.980743,187.310440 
	C290.004639,186.155060 289.028503,184.999695 287.915741,183.300797 
	C287.348389,182.842163 286.781036,182.383545 285.957367,181.306824 
	C284.660919,179.805573 283.364441,178.304306 281.986359,176.354660 
	C281.826263,176.052658 281.575378,175.907089 281.008606,175.341324 
	C280.336487,174.569595 279.664398,173.797852 278.895477,172.411179 
z"/>
<path fill="#191919" opacity="1.000000" stroke="none" 
	d="
M443.897583,317.988678 
	C443.916870,351.360748 443.936157,384.732849 443.397308,418.565430 
	C417.481232,419.042542 392.123322,419.059204 366.765381,419.075836 
	C366.411743,419.092712 366.163849,418.938995 365.996033,417.997955 
	C365.201996,416.622253 364.433624,415.863312 363.665283,415.104370 
	C358.553192,408.431580 353.618256,401.612946 348.279144,395.127045 
	C342.949005,388.652100 337.074860,382.627197 331.681213,376.201843 
	C311.289520,351.909607 291.004700,327.527649 270.662811,303.193542 
	C258.310699,288.417236 245.968079,273.632416 233.479996,258.971710 
	C232.487885,257.806976 230.411011,257.065857 228.804535,257.003967 
	C215.831985,256.504303 202.851334,256.214508 189.421509,255.303284 
	C188.980255,223.761734 189.074188,192.777115 188.907639,161.793900 
	C188.883682,157.338516 189.906189,155.836334 194.656113,155.880646 
	C217.974258,156.098129 241.296143,155.915131 264.616699,155.873596 
	C267.371399,159.020432 270.126129,162.167252 272.719849,165.822418 
	C273.771454,167.530960 274.984039,168.731125 276.196594,169.931305 
	C277.096222,170.757935 277.995850,171.584564 278.968201,173.085693 
	C279.771851,174.479446 280.502808,175.198700 281.233765,175.917938 
	C281.575378,175.907089 281.826263,176.052658 282.008148,176.963226 
	C283.424530,179.022842 284.819122,180.473877 286.213715,181.924927 
	C286.781036,182.383545 287.348389,182.842163 287.975220,183.957886 
	C289.093567,185.718613 290.152466,186.822266 291.211395,187.925903 
	C291.777008,188.379333 292.342651,188.832764 292.967651,189.941727 
	C294.095062,191.704330 295.163086,192.811386 296.231110,193.918442 
	C296.792755,194.381836 297.354401,194.845230 297.973816,195.964874 
	C299.090485,197.722961 300.149414,198.824783 301.208344,199.926620 
	C309.896667,210.378296 318.665192,220.764526 327.257050,231.294876 
	C346.892639,255.360611 366.441223,279.497314 386.027039,303.603607 
	C387.911835,305.923431 390.124115,308.045074 391.637634,310.584595 
	C394.844086,315.964844 399.143585,318.173157 405.825867,316.826538 
	C407.959259,317.520142 409.540100,317.959015 411.123199,317.967346 
	C422.047729,318.024719 432.972717,317.992249 443.897583,317.988678 
M270.115326,246.896362 
	C270.115326,246.896362 270.176880,246.776245 270.065857,247.551132 
	C271.485870,248.997009 272.905853,250.442886 274.895752,252.205032 
	C276.941223,254.772110 278.986694,257.339203 281.017883,260.740997 
	C281.330994,267.116455 284.971039,271.413727 292.635681,274.043030 
	C292.924591,274.219757 293.068573,274.477448 293.021637,275.636017 
	C292.768341,278.676941 293.943756,280.321014 297.825928,280.191376 
	C299.554230,282.526184 301.282532,284.860962 303.021088,287.919373 
	C304.081970,288.922485 305.142883,289.925568 306.736420,291.113129 
	C307.171417,291.700745 307.606384,292.288391 308.035828,293.647888 
	C308.800568,294.394440 309.565338,295.141022 310.830597,296.098175 
	C311.240723,296.673615 311.650818,297.249084 312.020844,298.602722 
	C312.515137,301.048157 312.866455,303.634644 316.756653,303.240997 
	C316.756653,303.240997 316.914124,303.588013 316.445465,304.260712 
	C315.742432,307.571960 318.126831,307.619568 320.723297,308.024628 
	C320.955200,308.245514 321.066345,308.515991 321.021576,309.624481 
	C322.142578,310.707977 323.263580,311.791504 324.913361,313.131287 
	C325.622955,314.045807 326.332550,314.960327 327.020508,316.644928 
	C328.096161,317.734924 329.171844,318.824951 330.840454,320.201263 
	C345.850769,337.812592 360.807037,355.470551 375.917236,372.995728 
	C378.923889,376.482941 382.519836,379.462006 386.381927,383.366638 
	C392.125061,383.551605 397.868652,383.869995 403.611145,383.851379 
	C405.707001,383.844574 406.069092,382.887146 404.907440,380.555084 
	C403.588043,379.089935 402.268677,377.624817 400.784576,375.668701 
	C400.531097,375.447296 400.277618,375.225891 399.555908,374.456268 
	C399.334503,373.862701 399.258545,373.143097 398.869843,372.694489 
	C392.920258,365.827240 386.929840,358.995361 380.965851,351.353485 
	C380.137512,350.612549 379.309204,349.871582 377.997131,348.775299 
	C376.988831,347.546448 375.980499,346.317566 374.964935,344.326752 
	C374.210266,343.583862 373.455566,342.840942 372.112213,341.805359 
	C366.296844,334.765778 360.481964,327.725861 354.666077,320.686707 
	C337.839722,300.321075 321.095306,279.886993 304.163330,259.609558 
	C287.007751,239.064331 269.675659,218.666397 252.381287,198.237442 
	C251.469711,197.160645 250.219818,195.657349 249.075012,195.609619 
	C242.859772,195.350433 236.628052,195.486557 229.524841,195.486557 
	C237.658020,205.682327 245.354630,215.330841 252.563599,225.351242 
	C253.147858,225.864868 253.732132,226.378494 254.816422,227.107330 
	C255.230835,227.680511 255.645264,228.253693 256.032318,229.607315 
	C256.803833,230.365952 257.575348,231.124603 258.842102,232.105652 
	C259.246429,232.683334 259.650787,233.261032 260.031769,234.612854 
	C260.791504,235.373276 261.551208,236.133698 262.737823,237.009491 
	C262.973633,237.222061 263.083893,237.486893 263.035950,238.620789 
	C263.890442,239.362961 264.744934,240.105118 266.037720,241.200165 
	C266.710938,242.078003 267.384186,242.955841 268.027222,244.597168 
	C268.762848,245.342209 269.498474,246.087250 270.115326,246.896362 
z"/>
<path fill="#191919" opacity="1.000000" stroke="none" 
	d="
M188.024155,310.009583 
	C190.137024,304.450073 192.249878,298.890533 195.046219,293.157654 
	C196.470139,291.961304 197.210587,290.938263 197.951035,289.915222 
	C197.951035,289.915222 197.988846,289.989075 198.344971,289.974304 
	C199.214020,289.150269 199.726944,288.340973 200.239868,287.531677 
	C200.239853,287.531677 200.385956,287.375885 200.800720,287.486145 
	C201.776108,287.008698 202.336716,286.420929 202.897308,285.833160 
	C202.897308,285.833160 202.923660,285.931671 203.284195,285.940125 
	C208.917099,284.452759 214.194626,282.974274 219.447784,281.413696 
	C219.733780,281.328766 219.816010,280.557892 219.993073,280.106323 
	C220.441132,280.034058 220.889206,279.961823 221.743332,280.325317 
	C226.711563,281.609772 227.379593,285.692139 228.986572,288.994843 
	C229.007278,290.716431 229.028000,292.437988 228.630188,294.637146 
	C226.476944,297.377228 224.742233,299.639740 223.007523,301.902252 
	C222.264328,302.571594 221.521133,303.240906 220.121780,304.001038 
	C215.990433,306.548462 214.743835,309.192352 216.176361,311.067963 
	C216.144684,311.504547 216.113007,311.941162 215.641037,312.748352 
	C213.592361,317.768616 216.153580,319.716309 222.081726,318.855347 
	C231.563721,317.478210 241.015060,316.821167 249.657059,322.432495 
	C250.251602,322.818512 251.449219,322.275757 252.366379,322.164948 
	C252.366379,322.164948 252.658432,322.289032 252.557205,322.761841 
	C253.372742,323.798767 254.289505,324.362946 255.206268,324.927124 
	C256.424408,326.036835 257.642548,327.146576 258.946045,328.930573 
	C259.736359,330.386536 260.441376,331.168213 261.146362,331.949890 
	C261.453827,332.366516 261.761261,332.783142 262.024841,333.836487 
	C263.275085,337.979309 264.569153,341.485443 265.863251,344.991577 
	C265.966980,346.388763 266.070740,347.785919 265.784882,349.887817 
	C265.034180,357.088989 264.599640,363.583069 264.393066,370.084412 
	C264.362885,371.035095 265.419067,372.020294 265.972595,372.989502 
	C265.958008,380.592285 266.343201,388.222015 265.833038,395.791382 
	C265.107941,406.549683 256.340668,415.712524 244.560226,418.922272 
	C243.611786,419.180634 242.668015,419.456177 241.222412,419.325256 
	C236.408936,417.869690 232.083664,416.622894 228.019684,419.695221 
	C226.936859,419.760651 225.854034,419.826111 224.245361,419.424194 
	C222.169998,418.640778 220.623566,418.070312 219.070450,418.051514 
	C211.243561,417.956696 203.414932,418.008942 195.586914,418.003448 
	C189.005554,417.998810 189.000153,417.995087 189.000137,411.635132 
	C189.000076,379.656860 189.019775,347.678558 188.963043,315.700378 
	C188.959671,313.802917 188.351105,311.906494 188.024155,310.009583 
z"/>
<path fill="#1A1A1A" opacity="1.000000" stroke="none" 
	d="
M376.033386,161.124451 
	C376.471863,160.738388 376.910339,160.352325 377.840759,160.197815 
	C381.880768,158.661972 385.428894,156.894577 388.976990,155.127167 
	C389.108276,155.009384 389.239594,154.891586 389.908447,155.117554 
	C392.238281,155.643814 394.030090,155.978897 395.822998,155.984573 
	C409.620148,156.028183 423.420868,156.179947 437.212830,155.908783 
	C441.690979,155.820740 443.138702,156.939499 443.106689,161.655350 
	C442.891296,193.404282 443.101532,225.156158 442.870636,256.904877 
	C442.837799,261.420563 441.175842,265.927032 440.240875,270.432159 
	C439.910858,272.022125 439.500122,273.595276 439.126251,275.176117 
	C439.126251,275.176117 439.082520,275.073761 438.759674,275.105774 
	C438.003815,276.154480 437.570801,277.171173 437.137787,278.187836 
	C437.137787,278.187836 437.089722,278.081451 436.772156,278.109314 
	C435.984467,279.135590 435.514404,280.133972 435.044312,281.132324 
	C434.591827,281.714874 434.139404,282.297424 433.034546,282.951569 
	C431.289062,284.067902 430.196014,285.112610 429.102936,286.157318 
	C429.102936,286.157318 429.055725,286.058075 428.720886,286.049988 
	C427.580475,286.779755 426.774902,287.517609 425.969330,288.255463 
	C417.850616,292.919312 408.589569,294.622528 400.066864,292.796539 
	C400.066864,287.704529 399.929871,282.475677 400.180420,277.265442 
	C400.231628,276.201050 401.545258,274.882629 402.613647,274.248779 
	C404.714325,273.002441 407.051331,272.154419 410.018188,271.056274 
	C411.835449,269.664307 412.925171,268.357697 414.014862,267.051086 
	C414.174561,266.755829 414.334259,266.460602 415.100067,266.015167 
	C418.508484,263.357483 418.742096,260.045044 416.716705,257.477142 
	C415.493713,255.926620 412.543365,255.572479 410.283051,255.062836 
	C408.699158,254.705673 406.969757,254.991837 405.305359,254.994019 
	C396.827179,255.005081 388.383270,255.093185 381.189728,249.319519 
	C379.917389,248.298325 377.729126,248.418335 375.963806,248.011353 
	C375.038605,247.217834 374.113403,246.424332 373.080322,244.973846 
	C372.273712,243.567474 371.574951,242.818085 370.876221,242.068695 
	C370.876221,242.068695 370.963409,242.036957 370.955811,241.688126 
	C369.961395,238.224243 368.187592,235.126129 368.120148,231.991302 
	C367.776306,215.999695 367.902832,199.998337 367.745117,184.001556 
	C367.735382,183.009903 366.703949,182.028320 366.147858,181.042053 
	C366.121490,180.574493 366.095123,180.106918 366.538879,179.202744 
	C367.671417,175.843582 368.333832,172.921036 368.996216,169.998489 
	C369.170959,169.420029 369.345673,168.841568 370.147461,168.082977 
	C371.528931,166.632950 372.283264,165.363068 373.037628,164.093185 
	C373.037628,164.093185 373.017944,164.020035 373.411713,163.999527 
	C374.548096,163.027481 375.290741,162.075958 376.033386,161.124451 
z"/>
<path fill="#202020" opacity="1.000000" stroke="none" 
	d="
M404.958618,473.456177 
	C416.125427,472.524017 419.341064,472.888184 421.057770,475.711365 
	C419.050110,475.471954 417.347076,475.268890 414.522858,474.932098 
	C414.226868,481.580933 413.932404,488.195862 413.623230,495.140991 
	C422.633545,495.140991 431.005341,495.140991 439.712067,495.140991 
	C439.712067,490.323303 439.712067,485.701721 439.980652,480.466248 
	C439.841248,479.236298 439.433228,478.620209 439.025208,478.004150 
	C437.571960,477.369324 436.118683,476.734497 434.251892,475.807922 
	C433.668549,475.258240 433.433075,475.095154 433.131897,475.026917 
	C433.627228,474.407898 434.111694,473.261230 434.619507,473.250793 
	C440.251251,473.135132 445.887360,473.158600 451.519806,473.268860 
	C452.047302,473.279144 452.558228,474.137360 454.118561,475.534973 
	C445.574310,475.722931 447.086273,481.243774 447.050873,485.846741 
	C446.980774,494.963379 446.908813,504.082855 447.082489,513.196533 
	C447.127686,515.565247 448.077148,517.916626 448.524933,520.922241 
	C444.922668,521.266235 441.406708,520.964050 437.890747,520.661804 
	C438.508087,517.154907 439.360504,513.668945 439.675842,510.135071 
	C439.983643,506.686218 439.742798,503.188446 439.742798,499.392029 
	C431.190399,499.392029 422.799225,499.392029 413.854553,499.392029 
	C413.854553,505.187469 413.583618,510.979553 414.035065,516.714783 
	C414.155884,518.249451 416.369171,519.742798 417.839569,521.000549 
	C418.691498,521.729309 419.977295,521.950867 421.067841,522.400696 
	C420.950348,522.819153 420.832825,523.237549 420.715332,523.656006 
	C413.873352,523.656006 407.031403,523.656006 399.197632,523.656006 
	C401.776489,521.387085 403.852020,519.560974 406.411926,517.278870 
	C407.245514,516.303040 407.895691,515.785400 407.899536,515.263000 
	C407.978241,504.645416 408.023804,494.026855 407.920593,483.410034 
	C407.912781,482.606323 406.742157,481.813904 406.112061,481.016205 
	C406.039246,480.279663 405.966431,479.543152 406.155151,478.245209 
	C405.785614,477.382385 405.154572,477.080963 404.523529,476.779541 
	C404.523529,476.779541 404.344635,476.669250 404.483795,476.267609 
	C404.734863,475.062714 404.846741,474.259430 404.958618,473.456177 
z"/>
<path fill="#191919" opacity="1.000000" stroke="none" 
	d="
M104.987976,486.981323 
	C103.870644,485.680206 102.753304,484.379059 100.948059,483.050323 
	C99.829010,483.018280 99.397873,483.013855 98.715691,483.222870 
	C98.634827,484.622040 98.805000,485.807739 99.249298,486.993195 
	C99.888657,486.988617 100.253899,486.984283 100.619141,486.979980 
	C100.682838,493.996429 100.746536,501.012848 100.473068,508.140808 
	C100.135895,501.849579 100.135895,495.446838 100.135895,489.044098 
	C99.008682,497.962341 98.971497,506.879456 99.077477,515.794922 
	C99.086197,516.528381 100.067795,517.250305 100.597359,517.977600 
	C102.154739,518.968750 103.712120,519.959900 105.633720,521.351074 
	C105.987923,522.360291 105.977913,522.969482 105.967903,523.578674 
	C100.548668,523.719360 95.072098,524.365234 89.289673,522.074707 
	C97.119942,522.120911 96.282059,516.973450 96.297218,512.490479 
	C96.329895,502.826538 96.249168,493.161926 96.323372,483.498413 
	C96.354019,479.507050 95.866508,476.086975 90.847542,475.724426 
	C90.595947,475.706238 90.287445,475.351562 90.157974,475.080688 
	C90.026459,474.805511 90.084061,474.439972 90.061371,474.113831 
	C97.152954,471.176941 103.684013,472.826172 108.013588,478.319519 
	C116.321404,488.860474 124.764595,499.294769 133.785370,509.869690 
	C134.626175,509.974213 134.833237,509.982391 135.271591,509.991577 
	C135.502869,509.992584 135.966080,509.977051 135.980927,510.435150 
	C135.688339,514.901245 135.380905,518.909241 134.702850,522.950012 
	C133.837555,523.009949 133.342880,523.037109 132.848236,523.064270 
	C123.652260,511.276520 114.456284,499.488770 105.477196,487.296753 
	C105.962036,486.580170 106.229988,486.267883 106.497932,485.955627 
	C106.267647,485.829498 105.851494,485.572571 105.834641,485.596527 
	C105.523964,486.038116 105.261017,486.513275 104.987976,486.981323 
z"/>
<path fill="#131313" opacity="1.000000" stroke="none" 
	d="
M192.011047,472.164246 
	C193.018005,472.085327 194.024994,472.006409 195.714996,472.041412 
	C197.218658,472.440033 198.039291,472.724731 198.859909,473.009430 
	C198.945267,482.558502 199.030624,492.107574 199.066071,502.334015 
	C199.500168,503.270660 199.984161,503.529907 200.468170,503.789185 
	C202.007431,502.622070 203.546707,501.454987 205.574341,500.650391 
	C206.670486,501.334198 207.278259,501.655518 207.886047,501.976868 
	C209.833557,504.452240 211.781067,506.927643 213.865631,510.096741 
	C214.828262,511.487457 215.653854,512.184448 216.479431,512.881409 
	C220.223694,516.338867 223.967957,519.796265 228.392883,523.882263 
	C223.006409,523.882263 218.410751,523.947510 213.819839,523.828796 
	C212.871078,523.804260 211.939987,523.095520 211.000763,522.702148 
	C211.666992,521.829834 212.333221,520.957520 213.369644,519.600464 
	C209.981049,515.545227 206.411133,511.272888 202.934265,507.111938 
	C197.274506,508.681427 199.360352,512.805664 199.127396,516.186096 
	C198.797562,520.972473 203.721634,520.444153 206.245316,522.334717 
	C206.037537,522.693848 205.829773,523.052979 205.621994,523.412109 
	C199.489182,523.412109 193.356384,523.412109 185.671646,523.412109 
	C187.437485,522.098999 188.276749,521.600281 188.959061,520.939514 
	C190.110703,519.824280 192.116135,518.602600 192.111618,517.432068 
	C192.058289,503.561066 191.698715,489.691223 191.300201,475.178864 
	C191.457535,473.745850 191.734283,472.955048 192.011047,472.164246 
M194.091003,480.588837 
	C194.091003,486.304657 194.091003,492.020508 194.091003,497.736328 
	C194.251053,497.726929 194.411102,497.717560 194.571152,497.708191 
	C194.571152,491.818054 194.571152,485.927917 194.091003,480.588837 
M194.997314,516.725342 
	C194.997314,514.827271 194.997314,512.929199 194.997314,511.031128 
	C194.586639,511.065369 194.175964,511.099609 193.765274,511.133820 
	C194.158829,513.231384 194.552368,515.328979 194.997314,516.725342 
M194.965668,503.719299 
	C194.723236,503.514923 194.480804,503.310547 194.238373,503.106140 
	C194.243958,503.705536 194.249557,504.304962 194.255157,504.904358 
	C194.493057,504.689148 194.730957,504.473938 194.965668,503.719299 
z"/>
<path fill="#1A1A1A" opacity="1.000000" stroke="none" 
	d="
M299.133514,497.011383 
	C299.133514,497.011383 298.933868,496.638855 298.859283,496.179626 
	C298.545135,495.484070 298.305573,495.247742 298.066010,495.011383 
	C295.315796,491.753784 291.943970,491.425812 288.218506,492.981262 
	C284.333954,494.603119 282.178925,497.712006 281.928772,501.748718 
	C281.610382,506.885864 281.633423,512.067627 281.943909,517.203857 
	C282.022217,518.499207 283.683685,519.760620 284.753174,520.911682 
	C285.424011,521.633667 286.347595,522.120911 287.157776,522.713440 
	C286.989441,523.128845 286.821106,523.544189 286.652802,523.959595 
	C285.035889,523.959595 283.419006,523.959595 281.361542,523.592041 
	C280.614471,522.804443 280.307922,522.384399 280.003540,521.622803 
	C279.427795,518.033386 278.849884,514.785645 278.220856,511.250519 
	C277.288116,511.175964 276.188538,511.088074 275.088959,511.000183 
	C275.036499,506.768066 275.093170,502.530396 274.878265,498.306549 
	C274.791473,496.601685 274.110657,494.927032 273.356140,492.731476 
	C273.012665,491.829651 273.013245,491.434998 273.013794,491.040344 
	C275.463745,489.992096 277.913727,488.943909 280.680115,487.760284 
	C280.808807,490.069611 280.906921,491.830780 281.011444,493.706726 
	C292.748016,485.523468 302.052521,486.043427 305.675903,495.425537 
	C306.394897,496.968842 306.767975,498.015045 307.141052,499.061279 
	C307.322479,506.114105 307.503906,513.166931 307.526611,520.602112 
	C304.502960,521.056702 301.261719,523.972351 298.949158,519.870361 
	C299.496918,517.359131 300.044647,514.847839 301.066040,511.758118 
	C301.062256,509.122894 300.584778,507.066193 300.107330,505.009460 
	C300.024353,503.619751 299.941406,502.230042 300.179474,500.242218 
	C300.044830,498.766541 299.589172,497.888947 299.133514,497.011383 
z"/>
<path fill="#191919" opacity="1.000000" stroke="none" 
	d="
M352.217590,501.202332 
	C348.268646,506.168762 348.665863,512.155945 353.268677,517.045044 
	C357.920349,521.986084 362.573822,522.232483 368.653717,518.018738 
	C369.692902,517.298523 371.073242,517.070557 372.509338,517.196960 
	C367.332214,525.078491 358.882141,526.658569 350.046814,521.678833 
	C350.068359,521.028931 350.065857,520.841431 350.063354,520.653870 
	C349.877716,520.856750 349.692078,521.059631 349.506470,521.262573 
	C341.658600,517.174011 341.142029,509.969574 342.019226,502.548004 
	C342.819519,495.777069 346.674042,491.000153 353.376221,488.984833 
	C359.769775,487.062317 365.875366,487.336578 370.797211,492.515839 
	C372.104767,493.891815 372.811218,495.838989 373.297577,497.984467 
	C372.792480,499.229919 372.783478,500.014801 372.774506,500.799683 
	C370.614655,501.540131 368.454834,502.280548 366.052765,502.316315 
	C365.800537,500.824463 365.790558,500.037323 365.872559,498.898987 
	C366.806732,494.917511 364.368225,492.087860 361.835266,491.792877 
	C357.930756,491.338135 353.477325,491.896301 351.267944,496.487488 
	C350.342896,498.409821 350.237640,499.963135 352.217590,501.202332 
M358.517578,522.413025 
	C358.517578,522.413025 358.583679,522.521973 358.517578,522.413025 
M347.481750,509.587494 
	C347.481750,509.587494 347.415497,509.475769 347.481750,509.587494 
z"/>
<path fill="#131313" opacity="1.000000" stroke="none" 
	d="
M259.612793,513.028992 
	C259.682678,514.012207 259.831848,514.997253 259.808716,515.978271 
	C259.710114,520.160095 261.879517,521.392822 266.314850,519.769165 
	C266.279022,520.345093 266.243195,520.921021 266.207367,521.496948 
	C264.719757,522.306091 263.232147,523.115234 261.296692,523.520447 
	C258.922302,522.996216 256.995789,522.875916 255.069244,522.755615 
	C254.173447,520.944763 253.277634,519.133972 252.921967,518.414978 
	C249.616409,520.222595 246.176590,522.103638 242.410110,523.646362 
	C242.737930,522.030090 243.392410,520.752197 244.435364,519.507568 
	C251.429047,517.169617 253.715408,512.751648 252.329407,504.323669 
	C248.997711,505.963928 245.663223,507.314850 242.632462,509.163727 
	C237.702728,512.171021 237.611328,515.175354 241.910126,519.593506 
	C241.231323,521.251709 240.622849,522.589478 240.014389,523.927307 
	C236.048737,524.456604 233.127777,522.207520 232.536148,518.946167 
	C232.067123,516.360718 233.078522,512.380310 234.944824,510.741150 
	C238.413574,507.694611 242.834885,505.563293 247.131500,503.666901 
	C254.198975,500.547516 254.472595,500.272766 251.084396,492.171265 
	C251.343521,490.644897 251.674774,489.813171 252.006058,488.981445 
	C254.218155,490.443207 256.430206,491.904999 258.396667,493.864319 
	C256.312103,496.473938 257.485474,496.992584 259.563751,497.032562 
	C259.639709,498.085785 259.715668,499.139008 259.390930,500.581512 
	C258.463165,501.417725 257.936127,501.864685 257.409058,502.311584 
	C258.145599,502.550415 258.882141,502.789246 259.618652,503.028076 
	C259.675201,504.730103 259.731750,506.432129 259.348602,508.561737 
	C258.293304,509.776489 257.677643,510.563629 257.062012,511.350800 
	C257.912262,511.910187 258.762543,512.469604 259.612793,513.028992 
z"/>
<path fill="#040404" opacity="1.000000" stroke="none" 
	d="
M264.405884,155.486465 
	C241.296143,155.915131 217.974258,156.098129 194.656113,155.880646 
	C189.906189,155.836334 188.883682,157.338516 188.907639,161.793900 
	C189.074188,192.777115 188.980255,223.761734 188.970245,255.191330 
	C188.359131,254.979828 187.213440,254.323502 187.212708,253.665863 
	C187.175659,220.840302 187.235489,188.014633 187.305206,155.189011 
	C187.305832,154.896057 187.582687,154.603683 187.894791,153.986115 
	C202.200775,153.986115 216.669220,153.984879 231.137680,153.986572 
	C240.635590,153.987671 250.134018,153.944458 259.630890,154.045715 
	C261.155853,154.061981 262.673859,154.731689 264.405884,155.486465 
z"/>
<path fill="#0D0D0D" opacity="1.000000" stroke="none" 
	d="
M439.443970,275.010773 
	C439.500122,273.595276 439.910858,272.022125 440.240875,270.432159 
	C441.175842,265.927032 442.837799,261.420563 442.870636,256.904877 
	C443.101532,225.156158 442.891296,193.404282 443.106689,161.655350 
	C443.138702,156.939499 441.690979,155.820740 437.212830,155.908783 
	C423.420868,156.179947 409.620148,156.028183 395.822998,155.984573 
	C394.030090,155.978897 392.238281,155.643814 390.172913,155.127045 
	C391.002258,154.563095 392.104370,154.135330 393.207184,154.133423 
	C409.705658,154.104904 426.204285,154.130112 442.702850,154.156357 
	C443.332520,154.157364 443.962006,154.296112 445.043701,154.424210 
	C445.043701,156.377884 445.043854,158.163620 445.043671,159.949356 
	C445.040314,190.780090 444.988342,221.610947 445.066895,252.441467 
	C445.087097,260.380493 443.523163,267.849091 439.443970,275.010773 
z"/>
<path fill="#191919" opacity="1.000000" stroke="none" 
	d="
M509.948212,522.842407 
	C509.176025,523.280823 508.403809,523.719299 506.964050,524.536743 
	C506.964050,509.624817 506.884796,495.433868 507.016815,481.244904 
	C507.052155,477.444092 506.442596,474.620941 501.531616,474.813538 
	C501.505585,474.283661 501.479584,473.753754 501.453552,473.223877 
	C505.038452,472.250916 508.623383,471.277985 512.592163,470.772522 
	C512.652283,476.347809 512.180603,481.453247 512.098022,486.564972 
	C512.074280,488.037659 513.171143,489.528412 513.754211,491.010895 
	C514.200500,491.609253 514.646851,492.207611 515.601074,492.992035 
	C516.489868,493.484619 516.870605,493.791138 517.142944,494.463928 
	C516.114624,497.210419 515.194824,499.590668 514.010925,502.078247 
	C513.828613,503.122894 513.910278,504.060211 514.107666,505.408386 
	C514.872925,509.859131 515.522522,513.898987 515.750366,517.955688 
	C514.203247,517.985718 513.077820,517.999023 511.635406,517.983643 
	C506.298370,518.304810 510.733459,521.305359 509.948212,522.842407 
M509.997253,483.907745 
	C509.935333,482.622650 509.873383,481.337555 509.811462,480.052429 
	C509.171509,481.300690 509.029572,482.553925 509.027039,483.807434 
	C509.008148,493.197937 509.016754,502.588531 509.016754,511.979065 
	C509.343597,511.979248 509.670471,511.979401 509.997314,511.979553 
	C509.997314,502.923401 509.997314,493.867249 509.997253,483.907745 
z"/>
<path fill="#090909" opacity="1.000000" stroke="none" 
	d="
M187.807129,310.363647 
	C188.351105,311.906494 188.959671,313.802917 188.963043,315.700378 
	C189.019775,347.678558 189.000076,379.656860 189.000137,411.635132 
	C189.000153,417.995087 189.005554,417.998810 195.586914,418.003448 
	C203.414932,418.008942 211.243561,417.956696 219.070450,418.051514 
	C220.623566,418.070312 222.169998,418.640778 223.849030,419.322449 
	C211.872391,419.688049 199.766266,419.688049 187.313110,419.688049 
	C187.197769,418.370850 186.991287,417.112152 186.991379,415.853485 
	C186.993652,382.614685 187.008667,349.375854 187.060654,316.137085 
	C187.063477,314.330353 187.405807,312.524170 187.807129,310.363647 
z"/>
<path fill="#131313" opacity="1.000000" stroke="none" 
	d="
M511.952423,518.012329 
	C513.077820,517.999023 514.203247,517.985718 516.082397,518.148499 
	C519.880798,521.774231 525.699097,522.093140 529.106750,519.422119 
	C537.265015,513.027344 536.363098,500.179779 530.036743,493.006012 
	C531.236450,491.899445 532.230530,491.127960 533.224609,490.356506 
	C534.256104,490.983917 535.287598,491.611328 536.197754,492.645630 
	C536.025452,493.544434 535.974487,494.036377 535.923462,494.528320 
	C536.321899,494.112823 536.720337,493.697327 537.118713,493.281799 
	C545.421021,501.409027 544.206665,511.366150 536.903809,519.400940 
	C530.985779,525.912048 521.280884,527.848083 512.394531,518.843689 
	C511.990021,518.398071 511.971222,518.205200 511.952423,518.012329 
z"/>
<path fill="#0D0D0D" opacity="1.000000" stroke="none" 
	d="
M307.409424,498.848663 
	C306.767975,498.015045 306.394897,496.968842 306.018036,495.561218 
	C309.666382,490.128662 314.555817,487.589355 320.858124,487.988586 
	C325.752625,488.298615 329.354492,490.384583 330.518524,495.941223 
	C324.297058,502.461304 328.078705,509.664246 326.982483,516.557678 
	C328.971039,515.904114 330.284515,515.472412 331.597961,515.040710 
	C329.995331,519.898499 335.400085,520.478394 338.125610,524.021362 
	C331.678375,524.021362 326.572906,524.072632 321.470703,523.966431 
	C320.701111,523.950378 319.946716,523.200500 319.185303,522.790039 
	C319.755524,522.189697 320.290375,521.112610 320.901703,521.067322 
	C324.524170,520.798828 325.035461,518.511719 324.980682,515.550293 
	C324.891693,510.741150 325.225861,505.908447 324.860596,501.125458 
	C324.589905,497.580383 324.092072,493.772064 319.659271,492.483276 
	C315.485260,491.269714 312.221313,492.770935 309.468109,495.762329 
	C308.717102,496.578278 308.266357,497.670563 307.409424,498.848663 
M320.297485,490.942688 
	C320.570312,490.815399 320.843109,490.688080 321.115906,490.560760 
	C320.385620,490.567200 319.655334,490.573639 318.925049,490.580109 
	C319.203094,490.701294 319.481140,490.822510 320.297485,490.942688 
z"/>
<path fill="#2C2C2C" opacity="1.000000" stroke="none" 
	d="
M494.013000,523.935730 
	C493.283264,524.080505 492.553528,524.225342 491.321411,523.987427 
	C490.239380,523.408264 489.659698,523.211914 489.079987,523.015625 
	C488.986877,521.436707 488.893799,519.857727 488.858093,517.533691 
	C488.642822,516.181213 488.370117,515.573853 488.046875,514.634399 
	C487.580933,513.821899 487.165527,513.341553 486.750122,512.861145 
	C486.792694,512.436584 486.835266,512.012024 487.387146,511.224548 
	C488.284760,509.380798 489.033417,507.891205 488.997650,506.420654 
	C488.859283,500.732727 488.470795,495.050873 488.175476,489.366760 
	C490.093781,489.084259 492.012054,488.801788 494.694214,488.406860 
	C494.694214,497.010925 494.609528,505.246063 494.744507,513.477539 
	C494.786469,516.038208 495.423492,518.589050 495.640747,521.562378 
	C494.999878,522.632202 494.506439,523.283936 494.013000,523.935730 
z"/>
<path fill="#232323" opacity="1.000000" stroke="none" 
	d="
M463.208435,489.344208 
	C465.342712,489.238312 467.476990,489.132416 470.558136,488.979553 
	C470.558136,496.283661 470.261871,503.353851 470.695862,510.378906 
	C470.883972,513.423950 472.576752,516.375977 473.443542,519.759033 
	C472.870056,520.767944 472.439087,521.387939 471.699951,522.035889 
	C470.934418,522.647339 470.477081,523.230835 470.019714,523.814331 
	C468.659302,522.869751 467.298920,521.925110 465.965454,520.206116 
	C465.670746,512.397217 465.447906,505.355652 464.947662,498.333862 
	C464.842316,496.854767 463.719208,495.448151 463.065063,494.008118 
	C463.065063,494.008118 462.873871,493.663086 462.938171,492.976501 
	C463.071136,491.308014 463.139801,490.326111 463.208435,489.344208 
z"/>
<path fill="#0D0D0D" opacity="1.000000" stroke="none" 
	d="
M151.039856,518.982300 
	C148.652451,515.967773 149.987991,513.035583 152.299057,511.309479 
	C156.513046,508.162170 161.067245,505.320801 165.825775,503.090607 
	C171.575897,500.395630 172.112732,499.895081 170.311493,493.423889 
	C171.422165,494.407501 172.830566,495.725769 172.884918,497.097687 
	C173.064957,501.641632 172.825577,506.208191 172.605728,510.759247 
	C172.503159,512.882812 172.075775,514.990662 171.795609,517.105652 
	C169.674438,518.755615 167.608932,520.485291 165.408798,522.022156 
	C164.294373,522.800598 162.936859,523.231140 161.346069,523.335815 
	C160.930496,521.680115 160.858124,520.507629 161.150360,519.429077 
	C169.110214,518.169128 171.906906,513.672852 170.449371,504.791656 
	C165.171860,506.242554 159.613739,507.021606 156.983734,513.007690 
	C155.162994,513.575317 153.376144,513.973572 152.285324,515.066589 
	C151.425537,515.928040 151.423096,517.645203 151.039856,518.982300 
z"/>
<path fill="#040404" opacity="1.000000" stroke="none" 
	d="
M366.935303,419.461731 
	C392.123322,419.059204 417.481232,419.042542 443.291412,419.024902 
	C443.144135,419.687836 442.546814,420.930145 441.944794,420.932434 
	C417.688721,421.024689 393.432220,421.014465 369.175934,420.951233 
	C368.484741,420.949432 367.795441,420.231598 366.935303,419.461731 
z"/>
<path fill="#262626" opacity="1.000000" stroke="none" 
	d="
M171.817688,517.426636 
	C172.075775,514.990662 172.503159,512.882812 172.605728,510.759247 
	C172.825577,506.208191 173.064957,501.641632 172.884918,497.097687 
	C172.830566,495.725769 171.422165,494.407501 170.251984,493.021423 
	C169.542892,492.723022 169.215820,492.467834 168.956787,491.648376 
	C170.739914,491.039520 172.454971,490.994843 174.170029,490.950195 
	C175.409058,493.376648 177.506836,495.730194 177.720154,498.243683 
	C178.277664,504.812836 178.011047,511.451904 177.611221,518.532837 
	C175.441788,519.002930 173.734131,519.003418 172.026489,519.003906 
	C171.964249,518.585144 171.901993,518.166382 171.817688,517.426636 
z"/>
<path fill="#131313" opacity="1.000000" stroke="none" 
	d="
M135.040314,509.990540 
	C134.833237,509.982391 134.626175,509.974213 134.108887,509.946045 
	C133.419281,499.026764 133.039886,488.127472 132.321503,476.639618 
	C131.342728,475.952820 130.702927,475.854553 130.063126,475.756287 
	C129.045471,475.494232 128.027832,475.232178 127.010185,474.970093 
	C127.072380,474.504669 127.134583,474.039276 127.196777,473.573853 
	C132.650711,473.573853 138.104645,473.573853 143.946152,473.573853 
	C141.873810,475.836914 139.849060,478.048004 137.443604,480.651794 
	C136.704407,481.026276 136.345886,481.008057 135.978943,480.667389 
	C135.674347,479.987976 135.378189,479.631012 135.082031,479.274048 
	C135.068665,479.438660 135.043686,479.603271 135.043655,479.767883 
	C135.041245,489.842102 135.040863,499.916321 135.040314,509.990540 
z"/>
<path fill="#0D0D0D" opacity="1.000000" stroke="none" 
	d="
M365.952393,181.386429 
	C366.703949,182.028320 367.735382,183.009903 367.745117,184.001556 
	C367.902832,199.998337 367.776306,215.999695 368.120148,231.991302 
	C368.187592,235.126129 369.961395,238.224243 370.937256,241.730682 
	C369.025024,236.954346 365.699982,231.843033 365.492706,226.608246 
	C364.901428,211.675995 365.578766,196.693512 365.952393,181.386429 
z"/>
<path fill="#F5F5F5" opacity="1.000000" stroke="none" 
	d="
M352.254700,501.204163 
	C350.237640,499.963135 350.342896,498.409821 351.267944,496.487488 
	C353.477325,491.896301 357.930756,491.338135 361.835266,491.792877 
	C364.368225,492.087860 366.806732,494.917511 365.555603,498.953156 
	C364.763397,499.546936 364.380127,499.735352 363.543152,499.834534 
	C359.551239,500.181824 356.013031,500.618347 352.474823,501.054871 
	C352.474823,501.054871 352.291809,501.205963 352.254700,501.204163 
z"/>
<path fill="#0D0D0D" opacity="1.000000" stroke="none" 
	d="
M376.104431,248.324631 
	C377.729126,248.418335 379.917389,248.298325 381.189728,249.319519 
	C388.383270,255.093185 396.827179,255.005081 405.305359,254.994019 
	C406.969757,254.991837 408.699158,254.705673 410.283051,255.062836 
	C412.543365,255.572479 415.493713,255.926620 416.716705,257.477142 
	C418.742096,260.045044 418.508484,263.357483 415.344788,265.929962 
	C415.348450,264.748718 415.847656,263.524170 416.053040,262.252136 
	C416.633698,258.655609 415.596619,257.095276 411.385803,256.867828 
	C402.913818,256.410126 394.414459,255.454529 386.083191,253.876587 
	C382.598083,253.216492 379.512329,250.447861 376.104431,248.324631 
z"/>
<path fill="#232323" opacity="1.000000" stroke="none" 
	d="
M331.713501,514.582764 
	C330.284515,515.472412 328.971039,515.904114 326.982483,516.557678 
	C328.078705,509.664246 324.297058,502.461304 330.490906,496.299072 
	C331.109772,502.090790 331.469391,508.107758 331.713501,514.582764 
z"/>
<path fill="#040404" opacity="1.000000" stroke="none" 
	d="
M135.987381,480.989838 
	C136.345886,481.008057 136.704407,481.026276 137.331940,481.031860 
	C137.650253,494.685455 137.699539,508.351624 137.335129,522.438843 
	C136.305450,522.878967 135.689453,522.898132 135.073471,522.917236 
	C135.380905,518.909241 135.688339,514.901245 135.991959,509.969086 
	C135.987900,499.693237 135.987640,490.341522 135.987381,480.989838 
z"/>
<path fill="#0D0D0D" opacity="1.000000" stroke="none" 
	d="
M252.085815,322.006531 
	C251.449219,322.275757 250.251602,322.818512 249.657059,322.432495 
	C241.015060,316.821167 231.563721,317.478210 222.081726,318.855347 
	C216.153580,319.716309 213.592361,317.768616 215.545532,313.063049 
	C215.575882,316.285645 217.083450,317.179596 220.269516,317.047424 
	C226.951157,316.770233 233.718491,316.323486 240.316162,317.095520 
	C244.277008,317.559021 247.984116,320.190796 252.085815,322.006531 
z"/>
<path fill="#262626" opacity="1.000000" stroke="none" 
	d="
M151.029205,519.338501 
	C151.423096,517.645203 151.425537,515.928040 152.285324,515.066589 
	C153.376144,513.973572 155.162994,513.575317 157.012573,513.351685 
	C158.512192,515.662292 159.648972,517.498657 160.785736,519.335083 
	C160.858124,520.507629 160.930496,521.680115 160.980530,523.292847 
	C156.729218,524.640991 153.158951,523.927612 151.029205,519.338501 
z"/>
<path fill="#040404" opacity="1.000000" stroke="none" 
	d="
M443.924194,317.543396 
	C432.972717,317.992249 422.047729,318.024719 411.123199,317.967346 
	C409.540100,317.959015 407.959259,317.520142 406.210175,316.949524 
	C418.345337,316.485413 430.647614,316.345337 442.950317,316.256439 
	C443.281799,316.254028 443.617249,316.805115 443.924194,317.543396 
z"/>
<path fill="#040404" opacity="1.000000" stroke="none" 
	d="
M406.050476,481.480255 
	C406.742157,481.813904 407.912781,482.606323 407.920593,483.410034 
	C408.023804,494.026855 407.978241,504.645416 407.899536,515.263000 
	C407.895691,515.785400 407.245514,516.303040 406.501801,516.903564 
	C406.067841,505.304321 406.028351,493.624298 406.050476,481.480255 
z"/>
<path fill="#232323" opacity="1.000000" stroke="none" 
	d="
M244.121552,491.062500 
	C243.054276,492.215393 241.993011,493.373932 240.918259,494.519806 
	C239.514389,496.016632 238.199600,497.630646 236.602402,498.882935 
	C236.297867,499.121674 234.034363,497.820404 234.083374,497.390137 
	C234.333252,495.196594 235.045685,493.055725 236.358002,490.908020 
	C239.453705,490.967194 241.787628,491.014862 244.121552,491.062500 
z"/>
<path fill="#090909" opacity="1.000000" stroke="none" 
	d="
M173.998199,490.612854 
	C172.454971,490.994843 170.739914,491.039520 168.881012,491.447449 
	C166.506638,491.665924 164.276108,491.521179 161.493698,491.179382 
	C155.056961,489.550659 154.174881,494.035492 152.765152,497.896271 
	C150.894608,494.548676 151.734634,491.781525 155.069885,490.241394 
	C161.254150,487.385651 167.583923,486.416565 173.998199,490.612854 
z"/>
<path fill="#0D0D0D" opacity="1.000000" stroke="none" 
	d="
M210.816971,494.945923 
	C211.207932,494.267822 211.598877,493.589691 211.969193,492.947357 
	C210.412704,492.087250 208.981888,491.296600 207.551071,490.505951 
	C207.738754,490.088196 207.926437,489.670410 208.114120,489.252655 
	C213.625687,489.252655 219.137238,489.252655 224.648804,489.252655 
	C224.785477,489.660461 224.922134,490.068268 225.058807,490.476074 
	C223.392319,491.175995 221.725845,491.875916 219.514893,492.312378 
	C217.591187,492.282562 216.144958,492.331085 214.850754,492.799591 
	C213.432968,493.312897 212.155548,494.213867 210.816971,494.945923 
z"/>
<path fill="#090909" opacity="1.000000" stroke="none" 
	d="
M487.785126,489.290955 
	C488.470795,495.050873 488.859283,500.732727 488.997650,506.420654 
	C489.033417,507.891205 488.284760,509.380798 487.492249,510.922302 
	C487.066742,506.865051 486.846741,502.735931 487.078491,498.632355 
	C487.323395,494.297119 486.906677,490.888336 480.247009,492.163788 
	C482.122131,487.850769 485.246002,489.767853 487.785126,489.290955 
z"/>
<path fill="#232323" opacity="1.000000" stroke="none" 
	d="
M513.895874,490.619080 
	C513.171143,489.528412 512.074280,488.037659 512.098022,486.564972 
	C512.180603,481.453247 512.652283,476.347809 512.975464,470.839111 
	C513.361267,471.629333 514.060059,472.815155 514.080139,474.012421 
	C514.170959,479.415588 514.069641,484.822021 513.895874,490.619080 
z"/>
<path fill="#202020" opacity="1.000000" stroke="none" 
	d="
M210.514664,495.059265 
	C212.155548,494.213867 213.432968,493.312897 214.850754,492.799591 
	C216.144958,492.331085 217.591187,492.282562 219.116928,492.406677 
	C215.684280,495.753815 212.105118,498.743164 208.205994,501.854675 
	C207.278259,501.655518 206.670486,501.334198 205.947784,500.670654 
	C207.292709,498.609802 208.752548,496.891235 210.514664,495.059265 
z"/>
<path fill="#040404" opacity="1.000000" stroke="none" 
	d="
M437.463562,520.741211 
	C441.406708,520.964050 444.922668,521.266235 448.723328,521.273315 
	C450.648071,521.345520 452.288177,521.712830 453.928253,522.080139 
	C453.852203,522.562378 453.776184,523.044617 453.700134,523.526855 
	C446.918518,523.526855 440.136902,523.526855 433.355286,523.526855 
	C433.187988,523.150696 433.020660,522.774536 432.853363,522.398376 
	C434.247681,521.872437 435.642029,521.346558 437.463562,520.741211 
z"/>
<path fill="#0D0D0D" opacity="1.000000" stroke="none" 
	d="
M463.013306,494.473633 
	C463.719208,495.448151 464.842316,496.854767 464.947662,498.333862 
	C465.447906,505.355652 465.670746,512.397217 465.945129,519.879761 
	C464.927704,516.966919 463.437164,513.655762 463.109985,510.233429 
	C462.626556,505.176819 462.970123,500.041138 463.013306,494.473633 
z"/>
<path fill="#131313" opacity="1.000000" stroke="none" 
	d="
M298.636719,520.069946 
	C301.261719,523.972351 304.502960,521.056702 307.776062,520.953125 
	C309.481110,521.330261 310.778015,521.738647 312.074890,522.147095 
	C311.943787,522.757812 311.812683,523.368469 311.681580,523.979187 
	C306.604797,523.979187 301.526550,524.036621 296.452911,523.910278 
	C295.778717,523.893555 295.127777,522.943115 294.466064,522.425049 
	C295.752167,521.706543 297.038239,520.988037 298.636719,520.069946 
z"/>
<path fill="#0D0D0D" opacity="1.000000" stroke="none" 
	d="
M266.080627,372.601990 
	C265.419067,372.020294 264.362885,371.035095 264.393066,370.084412 
	C264.599640,363.583069 265.034180,357.088989 265.691528,350.298950 
	C266.054779,357.408417 266.121735,364.811462 266.080627,372.601990 
z"/>
<path fill="#191919" opacity="1.000000" stroke="none" 
	d="
M275.017639,511.374115 
	C276.188538,511.088074 277.288116,511.175964 278.220856,511.250519 
	C278.849884,514.785645 279.427795,518.033386 279.585449,521.634155 
	C277.422424,521.260315 275.679688,520.533447 273.936951,519.806519 
	C274.273499,518.437622 274.610046,517.068665 275.278015,515.338379 
	C275.863464,514.816162 276.117493,514.655273 276.371521,514.494446 
	C275.954315,514.333923 275.537109,514.173340 275.119904,514.012756 
	C275.062042,513.257874 275.004181,512.502930 275.017639,511.374115 
z"/>
<path fill="#262626" opacity="1.000000" stroke="none" 
	d="
M152.918060,498.198059 
	C154.174881,494.035492 155.056961,489.550659 161.082428,491.322144 
	C160.450485,492.893097 159.357391,494.031555 158.969177,495.373871 
	C158.034668,498.605042 156.195145,499.640015 152.918060,498.198059 
z"/>
<path fill="#0D0D0D" opacity="1.000000" stroke="none" 
	d="
M472.008118,522.007935 
	C472.439087,521.387939 472.870056,520.767944 473.610443,520.088623 
	C478.636871,520.670288 482.967926,520.303528 486.177612,515.274231 
	C487.190002,514.988281 487.643707,514.977417 488.097412,514.966553 
	C488.370117,515.573853 488.642822,516.181213 488.905029,517.141235 
	C487.511627,518.615356 486.184998,519.817017 484.730682,520.836548 
	C483.123596,521.963135 481.399536,522.922852 479.266327,523.559021 
	C476.533447,522.772766 474.260681,522.382812 471.992920,521.995850 
	C471.997986,521.998901 472.008087,522.007935 472.008118,522.007935 
z"/>
<path fill="#131313" opacity="1.000000" stroke="none" 
	d="
M517.251404,494.097656 
	C516.870605,493.791138 516.489868,493.484619 515.931885,492.852478 
	C519.066711,488.343475 523.618958,487.901733 528.620361,488.832275 
	C528.189209,490.224121 527.593079,491.101013 526.578247,492.009827 
	C523.190125,492.727051 520.220764,493.412354 517.251404,494.097656 
z"/>
<path fill="#0D0D0D" opacity="1.000000" stroke="none" 
	d="
M229.086884,288.619141 
	C227.379593,285.692139 226.711563,281.609772 222.078796,280.392914 
	C224.258728,279.776672 226.509232,279.528534 229.187210,279.233276 
	C229.187210,282.474884 229.187210,285.359161 229.086884,288.619141 
z"/>
<path fill="#090909" opacity="1.000000" stroke="none" 
	d="
M100.678665,517.532471 
	C100.067795,517.250305 99.086197,516.528381 99.077477,515.794922 
	C98.971497,506.879456 99.008682,497.962341 100.135895,489.044098 
	C100.135895,495.446838 100.135895,501.849579 100.360168,508.592529 
	C100.642952,511.650909 100.701462,514.369141 100.678665,517.532471 
z"/>
<path fill="#0D0D0D" opacity="1.000000" stroke="none" 
	d="
M171.974319,519.396973 
	C173.734131,519.003418 175.441788,519.002930 177.576324,519.000977 
	C179.437653,519.712769 180.872055,520.426025 183.342087,521.654175 
	C181.000839,522.455017 178.562912,523.979126 176.222580,523.841675 
	C174.714981,523.753113 173.350677,521.224854 171.974319,519.396973 
z"/>
<path fill="#0D0D0D" opacity="1.000000" stroke="none" 
	d="
M244.513977,491.063416 
	C241.787628,491.014862 239.453705,490.967194 236.683899,490.855469 
	C240.874847,487.371582 246.048645,487.546082 251.673126,488.738037 
	C251.674774,489.813171 251.343521,490.644897 250.979736,491.812927 
	C248.933609,491.787628 246.920013,491.425995 244.513977,491.063416 
z"/>
<path fill="#0D0D0D" opacity="1.000000" stroke="none" 
	d="
M219.578949,280.040436 
	C219.816010,280.557892 219.733780,281.328766 219.447784,281.413696 
	C214.194626,282.974274 208.917099,284.452759 203.238373,285.917786 
	C207.432968,281.586578 213.308304,280.806580 219.578949,280.040436 
z"/>
<path fill="#040404" opacity="1.000000" stroke="none" 
	d="
M273.591980,519.985107 
	C275.679688,520.533447 277.422424,521.260315 279.583252,521.975830 
	C280.307922,522.384399 280.614471,522.804443 280.949677,523.498047 
	C277.106903,523.771606 273.235474,523.771606 269.364014,523.771606 
	C269.187531,523.312622 269.011078,522.853638 268.834595,522.394592 
	C270.305389,521.650940 271.776184,520.907288 273.591980,519.985107 
z"/>
<path fill="#191919" opacity="1.000000" stroke="none" 
	d="
M352.222961,501.523376 
	C356.013031,500.618347 359.551239,500.181824 363.729645,500.561340 
	C364.636261,501.800812 364.902649,502.224213 365.169067,502.647644 
	C360.769745,502.429047 356.370392,502.210480 352.222961,501.523376 
z"/>
<path fill="#090909" opacity="1.000000" stroke="none" 
	d="
M228.475052,419.778137 
	C232.083664,416.622894 236.408936,417.869690 240.849884,419.289551 
	C236.961487,419.721924 232.945953,419.791504 228.475052,419.778137 
z"/>
<path fill="#0D0D0D" opacity="1.000000" stroke="none" 
	d="
M265.927063,344.598328 
	C264.569153,341.485443 263.275085,337.979309 262.031555,334.120483 
	C263.385040,337.246887 264.687988,340.726013 265.927063,344.598328 
z"/>
<path fill="#0D0D0D" opacity="1.000000" stroke="none" 
	d="
M388.593536,155.096451 
	C385.428894,156.894577 381.880768,158.661972 378.144836,160.168259 
	C381.374695,158.293350 384.792389,156.679535 388.593536,155.096451 
z"/>
<path fill="#0D0D0D" opacity="1.000000" stroke="none" 
	d="
M223.362976,301.810852 
	C224.742233,299.639740 226.476944,297.377228 228.549225,295.061035 
	C228.886810,296.427795 228.886810,297.848267 228.886810,299.266113 
	C227.085297,300.121277 225.401855,300.920349 223.362976,301.810852 
z"/>
<path fill="#2C2C2C" opacity="1.000000" stroke="none" 
	d="
M526.996948,491.977905 
	C527.593079,491.101013 528.189209,490.224121 528.945679,489.055908 
	C530.336792,489.133972 531.567627,489.503387 533.011597,490.114655 
	C532.230530,491.127960 531.236450,491.899445 529.718750,492.950531 
	C528.462402,492.812744 527.729675,492.395355 526.996948,491.977905 
z"/>
<path fill="#0D0D0D" opacity="1.000000" stroke="none" 
	d="
M368.690369,170.190826 
	C368.333832,172.921036 367.671417,175.843582 366.676941,178.874084 
	C367.024750,176.115738 367.704620,173.249435 368.690369,170.190826 
z"/>
<path fill="#0D0D0D" opacity="1.000000" stroke="none" 
	d="
M462.823822,489.261047 
	C463.139801,490.326111 463.071136,491.308014 462.958374,492.780273 
	C461.056854,492.351654 459.199432,491.432678 457.342010,490.513672 
	C457.478607,490.068420 457.615173,489.623169 457.751740,489.177917 
	C459.314209,489.177917 460.876709,489.177917 462.823822,489.261047 
z"/>
<path fill="#0D0D0D" opacity="1.000000" stroke="none" 
	d="
M216.441895,310.857422 
	C214.743835,309.192352 215.990433,306.548462 219.826599,304.077148 
	C219.027512,306.257263 217.867462,308.452087 216.441895,310.857422 
z"/>
<path fill="#232323" opacity="1.000000" stroke="none" 
	d="
M244.046875,519.474304 
	C243.392410,520.752197 242.737930,522.030090 242.030945,523.605225 
	C241.436111,524.003723 240.893768,524.104980 240.182907,524.066772 
	C240.622849,522.589478 241.231323,521.251709 242.263077,519.613342 
	C243.139847,519.366638 243.593353,519.420471 244.046875,519.474304 
z"/>
<path fill="#222222" opacity="1.000000" stroke="none" 
	d="
M255.240540,523.039612 
	C256.995789,522.875916 258.922302,522.996216 260.930664,523.460693 
	C259.145599,523.644409 257.278717,523.484009 255.240540,523.039612 
z"/>
<path fill="#232323" opacity="1.000000" stroke="none" 
	d="
M511.635406,517.983643 
	C511.971222,518.205200 511.990021,518.398071 512.034302,518.880554 
	C511.560028,520.323181 511.060272,521.476135 510.254395,522.735779 
	C510.733459,521.305359 506.298370,518.304810 511.635406,517.983643 
z"/>
<path fill="#090909" opacity="1.000000" stroke="none" 
	d="
M300.040802,505.432678 
	C300.584778,507.066193 301.062256,509.122894 301.083679,511.490662 
	C300.409851,509.819763 300.192047,507.837860 300.040802,505.432678 
z"/>
<path fill="#222222" opacity="1.000000" stroke="none" 
	d="
M259.720428,512.631470 
	C258.762543,512.469604 257.912262,511.910187 257.062012,511.350800 
	C257.677643,510.563629 258.293304,509.776489 259.259033,508.979187 
	C259.682098,510.057404 259.755096,511.145691 259.720428,512.631470 
z"/>
<path fill="#0D0D0D" opacity="1.000000" stroke="none" 
	d="
M470.357971,523.924500 
	C470.477081,523.230835 470.934418,522.647339 471.699951,522.035889 
	C472.008087,522.007935 471.997986,521.998901 472.220673,522.268127 
	C473.669769,523.106384 474.896149,523.675415 476.122528,524.244507 
	C474.313751,524.174561 472.504974,524.104614 470.357971,523.924500 
z"/>
<path fill="#0D0D0D" opacity="1.000000" stroke="none" 
	d="
M286.085541,181.615875 
	C284.819122,180.473877 283.424530,179.022842 282.048950,177.187424 
	C283.364441,178.304306 284.660919,179.805573 286.085541,181.615875 
z"/>
<path fill="#202020" opacity="1.000000" stroke="none" 
	d="
M191.653168,472.050964 
	C191.734283,472.955048 191.457535,473.745850 191.059814,474.831360 
	C189.817291,474.993225 188.695740,474.860413 186.594788,474.611572 
	C188.622559,473.458069 189.958939,472.697876 191.653168,472.050964 
z"/>
<path fill="#0D0D0D" opacity="1.000000" stroke="none" 
	d="
M276.077881,169.632309 
	C274.984039,168.731125 273.771454,167.530960 272.821320,166.146057 
	C274.042206,167.085327 275.000702,168.209320 276.077881,169.632309 
z"/>
<path fill="#090909" opacity="1.000000" stroke="none" 
	d="
M494.436218,523.987366 
	C494.506439,523.283936 494.999878,522.632202 495.834656,521.942993 
	C497.191162,522.086426 498.206360,522.267334 499.221527,522.448181 
	C499.225525,522.855591 499.229492,523.263000 499.233490,523.670410 
	C497.775482,523.793274 496.317474,523.916138 494.436218,523.987366 
z"/>
<path fill="#232323" opacity="1.000000" stroke="none" 
	d="
M476.486328,524.309387 
	C474.896149,523.675415 473.669769,523.106384 472.215637,522.265137 
	C474.260681,522.382812 476.533447,522.772766 478.908600,523.532104 
	C478.290680,524.059021 477.570374,524.216675 476.486328,524.309387 
z"/>
<path fill="#040404" opacity="1.000000" stroke="none" 
	d="
M404.603394,473.355835 
	C404.846741,474.259430 404.734863,475.062714 404.397736,476.207275 
	C403.636566,476.375183 403.100616,476.201752 402.270996,475.647522 
	C402.001740,474.652588 402.026184,474.038452 402.050629,473.424255 
	C402.783142,473.368011 403.515625,473.311737 404.603394,473.355835 
z"/>
<path fill="#282828" opacity="1.000000" stroke="none" 
	d="
M134.702850,522.950012 
	C135.689453,522.898132 136.305450,522.878967 137.229553,522.891418 
	C136.046234,523.164917 134.554794,523.406799 132.955780,523.356445 
	C133.342880,523.037109 133.837555,523.009949 134.702850,522.950012 
z"/>
<path fill="#0D0D0D" opacity="1.000000" stroke="none" 
	d="
M413.723328,267.177124 
	C412.925171,268.357697 411.835449,269.664307 410.371613,270.985107 
	C411.142242,269.767242 412.287018,268.535187 413.723328,267.177124 
z"/>
<path fill="#0D0D0D" opacity="1.000000" stroke="none" 
	d="
M301.083618,199.623581 
	C300.149414,198.824783 299.090485,197.722961 298.040741,196.236328 
	C299.019592,197.007858 299.989227,198.164200 301.083618,199.623581 
z"/>
<path fill="#0D0D0D" opacity="1.000000" stroke="none" 
	d="
M296.112396,193.610535 
	C295.163086,192.811386 294.095062,191.704330 293.044250,190.209290 
	C294.038849,190.981766 295.016266,192.142197 296.112396,193.610535 
z"/>
<path fill="#0D0D0D" opacity="1.000000" stroke="none" 
	d="
M291.096069,187.618164 
	C290.152466,186.822266 289.093567,185.718613 288.043518,184.229645 
	C289.028503,184.999695 290.004639,186.155060 291.096069,187.618164 
z"/>
<path fill="#0D0D0D" opacity="1.000000" stroke="none" 
	d="
M429.409882,286.047607 
	C430.196014,285.112610 431.289062,284.067902 432.763672,283.036072 
	C432.002411,284.011963 430.859619,284.974915 429.409882,286.047607 
z"/>
<path fill="#090909" opacity="1.000000" stroke="none" 
	d="
M98.966736,483.009430 
	C99.397873,483.013855 99.829010,483.018280 100.582672,482.998749 
	C100.873108,484.049011 100.841026,485.123260 100.714043,486.588745 
	C100.253899,486.984283 99.888657,486.988617 99.257164,486.594879 
	C98.982857,485.134369 98.974800,484.071899 98.966736,483.009430 
z"/>
<path fill="#0D0D0D" opacity="1.000000" stroke="none" 
	d="
M372.744507,164.215393 
	C372.283264,165.363068 371.528931,166.632950 370.431702,167.963593 
	C370.876312,166.795441 371.663849,165.566513 372.744507,164.215393 
z"/>
<path fill="#222222" opacity="1.000000" stroke="none" 
	d="
M259.625427,496.715332 
	C257.485474,496.992584 256.312103,496.473938 258.395996,494.196930 
	C258.989655,494.820679 259.338348,495.609375 259.625427,496.715332 
z"/>
<path fill="#202020" opacity="1.000000" stroke="none" 
	d="
M199.001038,472.649597 
	C198.039291,472.724731 197.218658,472.440033 196.094330,472.024628 
	C196.760162,471.314056 197.729691,470.734192 198.699219,470.154327 
	C198.846863,470.866119 198.994522,471.577942 199.001038,472.649597 
z"/>
<path fill="#222222" opacity="1.000000" stroke="none" 
	d="
M272.594238,491.017395 
	C273.013245,491.434998 273.012665,491.829651 273.010254,492.520325 
	C271.972015,492.816315 270.935608,492.816315 269.899200,492.816315 
	C269.832916,492.446411 269.766663,492.076508 269.700378,491.706635 
	C270.525146,491.469208 271.349884,491.231812 272.594238,491.017395 
z"/>
<path fill="#0D0D0D" opacity="1.000000" stroke="none" 
	d="
M197.659485,290.034790 
	C197.210587,290.938263 196.470139,291.961304 195.351669,292.993408 
	C195.771729,292.053070 196.569824,291.103699 197.659485,290.034790 
z"/>
<path fill="#222222" opacity="1.000000" stroke="none" 
	d="
M259.724335,502.690308 
	C258.882141,502.789246 258.145599,502.550415 257.409058,502.311584 
	C257.936127,501.864685 258.463165,501.417725 259.302429,500.970428 
	C259.686432,501.430878 259.758240,501.891724 259.724335,502.690308 
z"/>
<path fill="#282828" opacity="1.000000" stroke="none" 
	d="
M106.228813,523.651978 
	C105.977913,522.969482 105.987923,522.360291 105.993134,521.446350 
	C106.155457,522.002808 106.322586,522.864014 106.228813,523.651978 
z"/>
<path fill="#0D0D0D" opacity="1.000000" stroke="none" 
	d="
M375.743439,161.217285 
	C375.290741,162.075958 374.548096,163.027481 373.448608,164.008087 
	C373.878967,163.128128 374.666229,162.219116 375.743439,161.217285 
z"/>
<path fill="#090909" opacity="1.000000" stroke="none" 
	d="
M299.095795,497.328674 
	C299.589172,497.888947 300.044830,498.766541 300.238068,499.827637 
	C299.669769,499.222748 299.363922,498.434326 299.095795,497.328674 
z"/>
<path fill="#202020" opacity="1.000000" stroke="none" 
	d="
M401.699524,473.301636 
	C402.026184,474.038452 402.001740,474.652588 401.997131,475.573853 
	C401.352570,475.675781 400.688171,475.470581 400.023773,475.265350 
	C400.465332,474.569885 400.906891,473.874451 401.699524,473.301636 
z"/>
<path fill="#0D0D0D" opacity="1.000000" stroke="none" 
	d="
M281.121185,175.629639 
	C280.502808,175.198700 279.771851,174.479446 279.016602,173.393158 
	C279.664398,173.797852 280.336487,174.569595 281.121185,175.629639 
z"/>
<path fill="#202020" opacity="1.000000" stroke="none" 
	d="
M216.382416,512.569214 
	C215.653854,512.184448 214.828262,511.487457 213.997406,510.405640 
	C214.756577,510.766205 215.520996,511.511597 216.382416,512.569214 
z"/>
<path fill="#0D0D0D" opacity="1.000000" stroke="none" 
	d="
M200.007385,287.694611 
	C199.726944,288.340973 199.214020,289.150269 198.308044,289.955383 
	C198.534958,289.253357 199.154922,288.555450 200.007385,287.694611 
z"/>
<path fill="#0D0D0D" opacity="1.000000" stroke="none" 
	d="
M370.939270,242.382370 
	C371.574951,242.818085 372.273712,243.567474 372.978821,244.681915 
	C372.324219,244.263336 371.663269,243.479675 370.939270,242.382370 
z"/>
<path fill="#0D0D0D" opacity="1.000000" stroke="none" 
	d="
M437.430786,278.049469 
	C437.570801,277.171173 438.003815,276.154480 438.810516,275.128479 
	C438.697388,276.049774 438.210571,276.980438 437.430786,278.049469 
z"/>
<path fill="#0D0D0D" opacity="1.000000" stroke="none" 
	d="
M435.329163,280.992371 
	C435.514404,280.133972 435.984467,279.135590 436.825012,278.134094 
	C436.668274,279.038116 436.141144,279.945251 435.329163,280.992371 
z"/>
<path fill="#040404" opacity="1.000000" stroke="none" 
	d="
M363.784546,415.408325 
	C364.433624,415.863312 365.201996,416.622253 365.960327,417.769409 
	C365.268158,417.342468 364.585968,416.527374 363.784546,415.408325 
z"/>
<path fill="#0D0D0D" opacity="1.000000" stroke="none" 
	d="
M261.057678,331.640656 
	C260.441376,331.168213 259.736359,330.386536 259.040466,329.229309 
	C259.689362,329.679626 260.329163,330.505524 261.057678,331.640656 
z"/>
<path fill="#0D0D0D" opacity="1.000000" stroke="none" 
	d="
M255.093414,324.663635 
	C254.289505,324.362946 253.372742,323.798767 252.646179,322.893188 
	C253.551086,323.167908 254.265823,323.783997 255.093414,324.663635 
z"/>
<path fill="#0D0D0D" opacity="1.000000" stroke="none" 
	d="
M426.279541,288.137207 
	C426.774902,287.517609 427.580475,286.779755 428.770508,286.073547 
	C428.299957,286.743103 427.444855,287.381012 426.279541,288.137207 
z"/>
<path fill="#090909" opacity="1.000000" stroke="none" 
	d="
M489.037079,523.277954 
	C489.659698,523.211914 490.239380,523.408264 490.959961,523.892822 
	C490.398621,523.967407 489.696411,523.753845 489.037079,523.277954 
z"/>
<path fill="#090909" opacity="1.000000" stroke="none" 
	d="
M488.046875,514.634399 
	C487.643707,514.977417 487.190002,514.988281 486.396851,514.998901 
	C486.108490,514.390381 486.159637,513.782104 486.480408,513.017456 
	C487.165527,513.341553 487.580933,513.821899 488.046875,514.634399 
z"/>
<path fill="#0D0D0D" opacity="1.000000" stroke="none" 
	d="
M202.619110,285.884918 
	C202.336716,286.420929 201.776108,287.008698 200.886292,287.422241 
	C201.151703,286.810944 201.746307,286.373810 202.619110,285.884918 
z"/>
<path fill="#0D0D0D" opacity="1.000000" stroke="none" 
	d="
M365.195251,502.629456 
	C364.902649,502.224213 364.636261,501.800812 364.183350,500.650574 
	C364.380127,499.735352 364.763397,499.546936 365.463623,499.304321 
	C365.790558,500.037323 365.800537,500.824463 365.604950,502.171204 
	C365.399353,502.730774 365.221436,502.611267 365.195251,502.629456 
z"/>
<path fill="#282828" opacity="1.000000" stroke="none" 
	d="
M130.266602,475.944946 
	C130.702927,475.854553 131.342728,475.952820 132.014130,476.305969 
	C131.520508,476.418457 130.995300,476.276031 130.266602,475.944946 
z"/>
<path fill="#040404" opacity="1.000000" stroke="none" 
	d="
M404.672302,476.963928 
	C405.154572,477.080963 405.785614,477.382385 406.148254,477.873535 
	C405.526917,477.758270 405.174011,477.453278 404.672302,476.963928 
z"/>
<path fill="#2C2C2C" opacity="1.000000" stroke="none" 
	d="
M537.107666,493.167542 
	C536.720337,493.697327 536.321899,494.112823 535.923462,494.528320 
	C535.974487,494.036377 536.025452,493.544434 536.390869,492.959625 
	C536.705261,492.866730 537.096619,493.053253 537.107666,493.167542 
z"/>
<path fill="#040404" opacity="1.000000" stroke="none" 
	d="
M438.999481,478.312744 
	C439.433228,478.620209 439.841248,479.236298 439.978821,480.009491 
	C439.463501,479.651550 439.218628,479.136444 438.999481,478.312744 
z"/>
<path fill="#282828" opacity="1.000000" stroke="none" 
	d="
M105.006439,486.958984 
	C105.261017,486.513275 105.523964,486.038116 105.834641,485.596527 
	C105.851494,485.572571 106.267647,485.829498 106.497932,485.955627 
	C106.229988,486.267883 105.962036,486.580170 105.351349,486.937042 
	C105.008606,486.981659 105.024910,486.936646 105.006439,486.958984 
z"/>
<path fill="#040404" opacity="1.000000" stroke="none" 
	d="
M275.059326,514.256409 
	C275.537109,514.173340 275.954315,514.333923 276.371521,514.494446 
	C276.117493,514.655273 275.863464,514.816162 275.364868,514.982178 
	C275.079803,514.824951 275.039276,514.662537 275.059326,514.256409 
z"/>
<path fill="#0D0D0D" opacity="1.000000" stroke="none" 
	d="
M373.119476,500.619110 
	C372.783478,500.014801 372.792480,499.229919 373.195923,498.277802 
	C373.548401,498.886566 373.506409,499.662537 373.119476,500.619110 
z"/>
<path fill="#090909" opacity="1.000000" stroke="none" 
	d="
M298.057373,495.291687 
	C298.305573,495.247742 298.545135,495.484070 298.860046,495.968323 
	C298.639801,496.001465 298.344269,495.786743 298.057373,495.291687 
z"/>
<path fill="#040404" opacity="1.000000" stroke="none" 
	d="
M433.097443,475.304749 
	C433.433075,475.095154 433.668549,475.258240 433.910614,475.723083 
	C433.676239,475.814148 433.369629,475.698364 433.097443,475.304749 
z"/>
<path fill="#FCFCFC" opacity="1.000000" stroke="none" 
	d="
M268.057434,243.833664 
	C267.384186,242.955841 266.710938,242.078003 265.682617,240.712616 
	C264.574554,239.418030 263.821594,238.611008 263.068634,237.803986 
	C263.083893,237.486893 262.973633,237.222061 262.408813,236.647903 
	C261.404877,235.470444 260.730011,234.654587 260.055115,233.838715 
	C259.650787,233.261032 259.246429,232.683334 258.477142,231.689331 
	C257.428009,230.457626 256.743866,229.642258 256.059692,228.826874 
	C255.645264,228.253693 255.230835,227.680511 254.471573,226.715240 
	C253.768234,225.875214 253.409744,225.427277 253.051254,224.979340 
	C245.354630,215.330841 237.658020,205.682327 229.524841,195.486557 
	C236.628052,195.486557 242.859772,195.350433 249.075012,195.609619 
	C250.219818,195.657349 251.469711,197.160645 252.381287,198.237442 
	C269.675659,218.666397 287.007751,239.064331 304.163330,259.609558 
	C321.095306,279.886993 337.839722,300.321075 354.666077,320.686707 
	C360.481964,327.725861 366.296844,334.765778 372.524597,342.249847 
	C373.615387,343.492462 374.293793,344.290588 374.972198,345.088715 
	C375.980499,346.317566 376.988831,347.546448 378.381775,349.253723 
	C379.493896,350.539856 380.221405,351.347565 380.948914,352.155243 
	C386.929840,358.995361 392.920258,365.827240 398.869843,372.694489 
	C399.258545,373.143097 399.334503,373.862701 399.798584,375.009216 
	C400.343933,375.761353 400.646606,375.960510 400.949280,376.159668 
	C402.268677,377.624817 403.588043,379.089935 404.912292,381.185211 
	C398.559448,382.102020 392.201752,382.388702 385.844055,382.675354 
	C382.519836,379.462006 378.923889,376.482941 375.917236,372.995728 
	C360.807037,355.470551 345.850769,337.812592 330.431030,319.748779 
	C329.028442,318.155823 328.035278,317.015320 327.042145,315.874817 
	C326.332550,314.960327 325.622955,314.045807 324.528381,312.690369 
	C323.114532,311.111664 322.085663,309.973907 321.056763,308.836121 
	C321.066345,308.515991 320.955200,308.245514 320.393555,307.665161 
	C319.013947,306.066437 317.964050,304.827209 316.914124,303.588013 
	C316.914124,303.588013 316.756653,303.240997 316.422699,302.901459 
	C314.746155,300.982788 313.403534,299.403656 312.060944,297.824524 
	C311.650818,297.249084 311.240723,296.673615 310.459229,295.694397 
	C309.405670,294.485748 308.723541,293.680878 308.041382,292.876007 
	C307.606384,292.288391 307.171417,291.700745 306.353699,290.718201 
	C304.984222,289.280792 303.997528,288.238281 303.010803,287.195770 
	C301.282532,284.860962 299.554230,282.526184 297.387390,279.748444 
	C295.655151,277.809052 294.361420,276.312592 293.067688,274.816101 
	C293.068573,274.477448 292.924591,274.219757 292.290649,273.663910 
	C288.307800,268.825287 284.669983,264.365784 281.032166,259.906281 
	C278.986694,257.339203 276.941223,254.772110 274.492981,251.730179 
	C272.785797,249.762299 271.481323,248.269272 270.176880,246.776245 
	C270.176880,246.776245 270.115326,246.896362 270.084595,246.558502 
	C269.388367,245.425003 268.722900,244.629333 268.057434,243.833664 
z"/>
<path fill="#131313" opacity="1.000000" stroke="none" 
	d="
M281.025024,260.323639 
	C284.669983,264.365784 288.307800,268.825287 292.067719,273.607422 
	C284.971039,271.413727 281.330994,267.116455 281.025024,260.323639 
z"/>
<path fill="#090909" opacity="1.000000" stroke="none" 
	d="
M386.112976,383.020996 
	C392.201752,382.388702 398.559448,382.102020 405.152954,381.420532 
	C406.069092,382.887146 405.707001,383.844574 403.611145,383.851379 
	C397.868652,383.869995 392.125061,383.551605 386.112976,383.020996 
z"/>
<path fill="#131313" opacity="1.000000" stroke="none" 
	d="
M293.044678,275.226074 
	C294.361420,276.312592 295.655151,277.809052 297.079681,279.612946 
	C293.943756,280.321014 292.768341,278.676941 293.044678,275.226074 
z"/>
<path fill="#0D0D0D" opacity="1.000000" stroke="none" 
	d="
M312.040894,298.213623 
	C313.403534,299.403656 314.746155,300.982788 316.254333,302.812256 
	C312.866455,303.634644 312.515137,301.048157 312.040894,298.213623 
z"/>
<path fill="#0D0D0D" opacity="1.000000" stroke="none" 
	d="
M316.679810,303.924377 
	C317.964050,304.827209 319.013947,306.066437 320.177765,307.602448 
	C318.126831,307.619568 315.742432,307.571960 316.679810,303.924377 
z"/>
<path fill="#0D0D0D" opacity="1.000000" stroke="none" 
	d="
M270.121368,247.163696 
	C271.481323,248.269272 272.785797,249.762299 274.208069,251.572052 
	C272.905853,250.442886 271.485870,248.997009 270.121368,247.163696 
z"/>
<path fill="#0D0D0D" opacity="1.000000" stroke="none" 
	d="
M321.039185,309.230286 
	C322.085663,309.973907 323.114532,311.111664 324.264008,312.562225 
	C323.263580,311.791504 322.142578,310.707977 321.039185,309.230286 
z"/>
<path fill="#0D0D0D" opacity="1.000000" stroke="none" 
	d="
M303.015930,287.557556 
	C303.997528,288.238281 304.984222,289.280792 306.087372,290.625977 
	C305.142883,289.925568 304.081970,288.922485 303.015930,287.557556 
z"/>
<path fill="#0D0D0D" opacity="1.000000" stroke="none" 
	d="
M327.031311,316.259888 
	C328.035278,317.015320 329.028442,318.155823 330.134521,319.605652 
	C329.171844,318.824951 328.096161,317.734924 327.031311,316.259888 
z"/>
<path fill="#0D0D0D" opacity="1.000000" stroke="none" 
	d="
M256.046021,229.217102 
	C256.743866,229.642258 257.428009,230.457626 258.229523,231.578125 
	C257.575348,231.124603 256.803833,230.365952 256.046021,229.217102 
z"/>
<path fill="#0D0D0D" opacity="1.000000" stroke="none" 
	d="
M260.043457,234.225784 
	C260.730011,234.654587 261.404877,235.470444 262.195343,236.590210 
	C261.551208,236.133698 260.791504,235.373276 260.043457,234.225784 
z"/>
<path fill="#0D0D0D" opacity="1.000000" stroke="none" 
	d="
M263.052307,238.212387 
	C263.821594,238.611008 264.574554,239.418030 265.463470,240.536163 
	C264.744934,240.105118 263.890442,239.362961 263.052307,238.212387 
z"/>
<path fill="#0D0D0D" opacity="1.000000" stroke="none" 
	d="
M268.042328,244.215424 
	C268.722900,244.629333 269.388367,245.425003 270.143982,246.526474 
	C269.498474,246.087250 268.762848,245.342209 268.042328,244.215424 
z"/>
<path fill="#090909" opacity="1.000000" stroke="none" 
	d="
M380.957397,351.754364 
	C380.221405,351.347565 379.493896,350.539856 378.623657,349.431396 
	C379.309204,349.871582 380.137512,350.612549 380.957397,351.754364 
z"/>
<path fill="#090909" opacity="1.000000" stroke="none" 
	d="
M374.968567,344.707733 
	C374.293793,344.290588 373.615387,343.492462 372.818939,342.396179 
	C373.455566,342.840942 374.210266,343.583862 374.968567,344.707733 
z"/>
<path fill="#0D0D0D" opacity="1.000000" stroke="none" 
	d="
M308.038605,293.261963 
	C308.723541,293.680878 309.405670,294.485748 310.208954,295.589111 
	C309.565338,295.141022 308.800568,294.394440 308.038605,293.261963 
z"/>
<path fill="#0D0D0D" opacity="1.000000" stroke="none" 
	d="
M252.807434,225.165283 
	C253.409744,225.427277 253.768234,225.875214 254.221558,226.607635 
	C253.732132,226.378494 253.147858,225.864868 252.807434,225.165283 
z"/>
<path fill="#090909" opacity="1.000000" stroke="none" 
	d="
M400.866943,375.914185 
	C400.646606,375.960510 400.343933,375.761353 400.032715,375.283325 
	C400.277618,375.225891 400.531097,375.447296 400.866943,375.914185 
z"/>
<path fill="#282828" opacity="1.000000" stroke="none" 
	d="
M135.978943,480.667389 
	C135.987640,490.341522 135.987900,499.693237 135.977112,509.510986 
	C135.966080,509.977051 135.502869,509.992584 135.271591,509.991577 
	C135.040863,499.916321 135.041245,489.842102 135.043655,479.767883 
	C135.043686,479.603271 135.068665,479.438660 135.082031,479.274048 
	C135.378189,479.631012 135.674347,479.987976 135.978943,480.667389 
z"/>
<path fill="#282828" opacity="1.000000" stroke="none" 
	d="
M98.715691,483.222870 
	C98.974800,484.071899 98.982857,485.134369 98.983047,486.595154 
	C98.805000,485.807739 98.634827,484.622040 98.715691,483.222870 
z"/>
<path fill="#202020" opacity="1.000000" stroke="none" 
	d="
M194.331085,480.313293 
	C194.571152,485.927917 194.571152,491.818054 194.571152,497.708191 
	C194.411102,497.717560 194.251053,497.726929 194.091003,497.736328 
	C194.091003,492.020508 194.091003,486.304657 194.331085,480.313293 
z"/>
<path fill="#202020" opacity="1.000000" stroke="none" 
	d="
M194.971619,517.075928 
	C194.552368,515.328979 194.158829,513.231384 193.765274,511.133820 
	C194.175964,511.099609 194.586639,511.065369 194.997314,511.031128 
	C194.997314,512.929199 194.997314,514.827271 194.971619,517.075928 
z"/>
<path fill="#202020" opacity="1.000000" stroke="none" 
	d="
M194.967255,503.989014 
	C194.730957,504.473938 194.493057,504.689148 194.255157,504.904358 
	C194.249557,504.304962 194.243958,503.705536 194.238373,503.106140 
	C194.480804,503.310547 194.723236,503.514923 194.967255,503.989014 
z"/>
<path fill="#FFFFFF" opacity="1.000000" stroke="none" 
	d="
M200.209717,503.446777 
	C199.984161,503.529907 199.500168,503.270660 199.188202,502.746887 
	C199.557251,502.689697 199.754242,502.897034 200.209717,503.446777 
z"/>
<path fill="#202020" opacity="1.000000" stroke="none" 
	d="
M349.577515,521.307251 
	C349.692078,521.059631 349.877716,520.856750 350.063354,520.653870 
	C350.065857,520.841431 350.068359,521.028931 349.904480,521.355225 
	C349.738068,521.494019 349.648560,521.351990 349.577515,521.307251 
z"/>
<path fill="#202020" opacity="1.000000" stroke="none" 
	d="
M358.550629,522.467529 
	C358.583679,522.521973 358.517578,522.413025 358.550629,522.467529 
z"/>
<path fill="#202020" opacity="1.000000" stroke="none" 
	d="
M347.448608,509.531616 
	C347.415497,509.475769 347.481750,509.587494 347.448608,509.531616 
z"/>
<path fill="#FAFAFA" opacity="1.000000" stroke="none" 
	d="
M244.435333,519.507568 
	C243.593353,519.420471 243.139847,519.366638 242.333405,519.292969 
	C237.611328,515.175354 237.702728,512.171021 242.632462,509.163727 
	C245.663223,507.314850 248.997711,505.963928 252.329407,504.323669 
	C253.715408,512.751648 251.429047,517.169617 244.435333,519.507568 
z"/>
<path fill="#FAFAFA" opacity="1.000000" stroke="none" 
	d="
M526.578247,492.009857 
	C527.729675,492.395355 528.462402,492.812744 529.513184,493.285645 
	C536.363098,500.179779 537.265015,513.027344 529.106750,519.422119 
	C525.699097,522.093140 519.880798,521.774231 516.504150,518.131714 
	C515.522522,513.898987 514.872925,509.859131 514.259521,505.134094 
	C514.288818,503.622955 514.281921,502.796906 514.274963,501.970886 
	C515.194824,499.590668 516.114624,497.210419 517.142944,494.463928 
	C520.220764,493.412354 523.190125,492.727051 526.578247,492.009857 
z"/>
<path fill="#232323" opacity="1.000000" stroke="none" 
	d="
M509.997284,484.359436 
	C509.997314,493.867249 509.997314,502.923401 509.997314,511.979553 
	C509.670471,511.979401 509.343597,511.979248 509.016754,511.979065 
	C509.016754,502.588531 509.008148,493.197937 509.027039,483.807434 
	C509.029572,482.553925 509.171509,481.300690 509.811462,480.052429 
	C509.873383,481.337555 509.935333,482.622650 509.997284,484.359436 
z"/>
<path fill="#232323" opacity="1.000000" stroke="none" 
	d="
M514.010925,502.078247 
	C514.281921,502.796906 514.288818,503.622955 514.143860,504.723267 
	C513.910278,504.060211 513.828613,503.122894 514.010925,502.078247 
z"/>
<path fill="#232323" opacity="1.000000" stroke="none" 
	d="
M320.028320,490.943207 
	C319.481140,490.822510 319.203094,490.701294 318.925049,490.580078 
	C319.655334,490.573639 320.385620,490.567200 321.115906,490.560791 
	C320.843109,490.688080 320.570312,490.815399 320.028320,490.943207 
z"/>
<path fill="#F5F5F5" opacity="1.000000" stroke="none" 
	d="
M161.150360,519.429077 
	C159.648972,517.498657 158.512192,515.662292 157.346588,513.481812 
	C159.613739,507.021606 165.171860,506.242554 170.449371,504.791656 
	C171.906906,513.672852 169.110214,518.169128 161.150360,519.429077 
z"/>
</svg>